<?xml version="1.0" encoding="utf-8"?>
<!-- Generator: Adobe Illustrator 19.2.1, SVG Export Plug-In . SVG Version: 6.00 Build 0)  -->
<svg version="1.1" id="Calque_1" xmlns="http://www.w3.org/2000/svg" xmlns:xlink="http://www.w3.org/1999/xlink" x="0px" y="0px"
	 viewBox="0 0 595.3 841.9" style="enable-background:new 0 0 595.3 841.9;" xml:space="preserve">
<style type="text/css">
	.st0{opacity:0.12;fill:#212121;enable-background:new    ;}
	.st1{fill:#87BCDB;}
	.st2{fill:#FEE0C1;}
	.st3{fill:#77A8C6;}
	.st4{fill:#F7CDA9;}
	.st5{opacity:9.000000e-02;fill:#212121;enable-background:new    ;}
	.st6{fill:#FEECDB;}
	.st7{fill:#989898;}
	.st8{fill:#72A9C1;}
	.st9{fill:#6193AD;}
	.st10{opacity:5.000000e-02;fill:#212121;enable-background:new    ;}
</style>
<path class="st0" d="M395.1,478.5c69.5-36.6,70.5-84.3,70.5-84.3C495.6,144.5,311,160.7,311,160.7c-155.6,4-160.8,163.4-147.3,233.5
	s74.7,84.3,74.7,84.3H395.1z"/>
<path class="st0" d="M387.5,486.2c69.5-36.6,70.5-84.3,70.5-84.3c31.3-260.2-180.7-231.2-154.6-233.5
	c-155.6,4-160.8,163.4-147.3,233.5s74.7,84.3,74.7,84.3H387.5z"/>
<path class="st1" d="M379.5,489.2c69.5-36.6,70.5-84.3,70.5-84.3c30-249.7-154.6-233.5-154.6-233.5
	c-155.6,4-160.8,163.4-147.3,233.5s74.7,84.3,74.7,84.3H379.5z"/>
<path class="st2" d="M270,538.4h57c20.8-40,51.9-49.2,51.9-49.2H222.3C254.4,499.5,270,538.5,270,538.4z"/>
<path class="st2" d="M327,538.5v148.2c-2.1,11.2-14.5,12.2-14.5,12.2h-28c-9.2,0-14.5-13.2-14.5-13.2V538.5H327z"/>
<g>
	<g>
		<path class="st3" d="M172.2,239.7c69,150,260.2,206.7,260.2,206.7l0,0c11.5-15.5,19.7-41,19.7-41
			c30-249.7-154.6-233.5-154.6-233.5C233,173.6,194.3,202,172.2,239.7z"/>
	</g>
</g>
<path class="st4" d="M300,535.4c10.4,0,21.6-18.5,27-46.2h-57C282.4,538.5,300.1,535.4,300,535.4z"/>
<path class="st5" d="M320.8,686.8V522.3c-3.1,8.1-14.5,16.2-14.5,16.2v154.3C319.8,696.8,320.8,686.7,320.8,686.8z"/>
<path class="st6" d="M277.3,686.8V522.3c3.1,8.1,14.5,16.2,14.5,16.2v154.3C278.3,696.8,277.3,686.7,277.3,686.8z"/>
<path class="st7" d="M327,538.5"/>
<path class="st7" d="M327,538.5"/>
<rect x="300.6" y="489.2" class="st1" width="1.9" height="209.7"/>
<path class="st8" d="M302.5,535.1c-0.6,0.2-1.3,0.3-1.9,0.3v-46.2h1.9V535.1z"/>
<rect x="295.3" y="489.2" class="st3" width="1.9" height="209.7"/>
<path class="st5" d="M334.3,526.2c-4.4-1-7.3-36.9-7.3-36.9v49.2L334.3,526.2z"/>
<path class="st9" d="M295.2,534.4c0.6,0.2,1.3,0.6,1.9,0.7v-45.9h-1.9V534.4z"/>
<path class="st10" d="M262.1,523.5c4.3-1,7.5-37.3,7.5-37.3l0.4,52.3C268.4,534.2,265.3,528.9,262.1,523.5z"/>
</svg>
