<svg id="Calque_1" data-name="Calque 1" xmlns="http://www.w3.org/2000/svg" xmlns:xlink="http://www.w3.org/1999/xlink" viewBox="0 0 694.42 466.76"><defs><style>.cls-1{fill:none;}.cls-2{clip-path:url(#clip-path);}.cls-3{fill:#81bbdb;}.cls-4{fill:#ff6e65;}.cls-5{fill:#fff;}.cls-6{fill:#75a8c5;}.cls-7{fill:#e7635a;}.cls-8{font-size:80px;fill:#a6bcca;font-family:Raleway;font-weight:700;}.cls-9{opacity:0.8;}.cls-10{clip-path:url(#clip-path-3);}.cls-11{fill:#ffda7d;}.cls-12{opacity:0.7;}.cls-13{clip-path:url(#clip-path-4);}.cls-14{fill:#bdccd4;}.cls-15{clip-path:url(#clip-path-6);}.cls-16{clip-path:url(#clip-path-7);}.cls-17{clip-path:url(#clip-path-8);}.cls-18{clip-path:url(#clip-path-9);}.cls-19{clip-path:url(#clip-path-10);}.cls-20{clip-path:url(#clip-path-11);}</style><clipPath id="clip-path" transform="translate(0 0)"><rect class="cls-1" width="694.42" height="466.76"/></clipPath><clipPath id="clip-path-3" transform="translate(0 0)"><rect class="cls-1" x="395.61" width="24.28" height="24.28"/></clipPath><clipPath id="clip-path-4" transform="translate(0 0)"><rect class="cls-1" x="517.42" y="27.33" width="16.27" height="16.27"/></clipPath><clipPath id="clip-path-6" transform="translate(0 0)"><rect class="cls-1" x="578.56" y="181.23" width="20.6" height="20.6"/></clipPath><clipPath id="clip-path-7" transform="translate(0 0)"><rect class="cls-1" x="270.44" y="406.73" width="12.57" height="12.57"/></clipPath><clipPath id="clip-path-8" transform="translate(0 0)"><rect class="cls-1" x="185.79" y="31.7" width="12.57" height="12.57"/></clipPath><clipPath id="clip-path-9" transform="translate(0 0)"><rect class="cls-1" y="414.43" width="12.57" height="12.57"/></clipPath><clipPath id="clip-path-10" transform="translate(0 0)"><rect class="cls-1" x="4.15" y="199.38" width="24.28" height="24.28"/></clipPath><clipPath id="clip-path-11" transform="translate(0 0)"><rect class="cls-1" x="670.14" y="271.52" width="24.28" height="24.28"/></clipPath></defs><title>calendar</title><g class="cls-2"><polyline class="cls-3" points="322.31 182.28 322.31 378.12 66.31 378.12 66.31 93.84 322.31 93.84 322.31 153.37"/><rect class="cls-4" x="345.31" y="93.84" width="256" height="284.28"/><rect class="cls-5" x="388.63" y="176.57" width="163.38" height="147.64"/><rect class="cls-5" x="107.12" y="176.57" width="163.38" height="147.64"/><rect class="cls-6" x="66.31" y="121.55" width="256" height="18.05"/><rect class="cls-7" x="345.31" y="121.55" width="256" height="18.05"/><rect class="cls-6" x="107.12" y="324.21" width="163.38" height="14.6"/><rect class="cls-6" x="270.5" y="176.64" width="14.6" height="162.17"/><rect class="cls-7" x="388.63" y="324.21" width="163.38" height="14.6"/><rect class="cls-7" x="552.01" y="176.64" width="14.6" height="162.17"/><text class="cls-8" transform="translate(430.31 276.38)">15</text><text class="cls-8" transform="translate(139.27 276.38)">09</text><g class="cls-2"><g class="cls-9"><g class="cls-10"><polygon class="cls-11" points="412.08 12.14 419.89 4.33 415.56 0 407.75 7.81 399.94 0 395.61 4.33 403.43 12.14 395.61 19.95 399.94 24.28 407.75 16.47 415.56 24.28 419.89 19.95 412.08 12.14"/></g></g><g class="cls-12"><g class="cls-13"><path class="cls-4" d="M533.69,35.47a8.14,8.14,0,1,1-8.14-8.14,8.14,8.14,0,0,1,8.14,8.14" transform="translate(0 0)"/></g></g></g><polygon class="cls-14" points="99.19 22.06 96.28 12.66 91.07 14.27 93.99 23.67 84.59 26.59 86.2 31.8 95.6 28.88 98.52 38.28 103.72 36.66 100.81 27.27 110.21 24.35 108.59 19.14 99.19 22.06"/><g class="cls-2"><path class="cls-11" d="M340.33,460.24a6.51,6.51,0,1,1-6.52-6.51,6.51,6.51,0,0,1,6.52,6.51" transform="translate(0 0)"/><path class="cls-11" d="M638.86,81a7.28,7.28,0,1,1-7.28-7.28A7.28,7.28,0,0,1,638.86,81" transform="translate(0 0)"/><g class="cls-12"><g class="cls-15"><path class="cls-4" d="M589,181.23a10.3,10.3,0,1,1-10.49,10.11A10.3,10.3,0,0,1,589,181.23" transform="translate(0 0)"/></g></g><path class="cls-14" d="M26.18,57.6a6.28,6.28,0,1,1-6.28-6.28,6.28,6.28,0,0,1,6.28,6.28" transform="translate(0 0)"/><path class="cls-14" d="M324.06,49.58a6.28,6.28,0,1,1-6.28-6.28,6.28,6.28,0,0,1,6.28,6.28" transform="translate(0 0)"/><g class="cls-9"><g class="cls-16"><path class="cls-4" d="M282.79,414.64a6.28,6.28,0,1,1-4.44-7.7,6.28,6.28,0,0,1,4.44,7.7" transform="translate(0 0)"/></g></g><path class="cls-11" d="M128.08,423.09a10.3,10.3,0,1,1-7.27-12.62,10.3,10.3,0,0,1,7.27,12.62" transform="translate(0 0)"/><path class="cls-14" d="M510.11,432.35a6.28,6.28,0,1,1-4.44-7.7,6.28,6.28,0,0,1,4.44,7.7" transform="translate(0 0)"/><polygon class="cls-14" points="666.63 87.13 671.19 83.25 669.04 80.72 664.48 84.61 660.6 80.05 658.07 82.2 661.95 86.76 657.39 90.64 659.55 93.17 664.1 89.28 667.99 93.84 670.51 91.69 666.63 87.13"/><path class="cls-11" d="M649.85,436.48a10.3,10.3,0,1,1-7.27-12.62,10.3,10.3,0,0,1,7.27,12.62" transform="translate(0 0)"/><g class="cls-9"><g class="cls-17"><path class="cls-4" d="M198.14,39.62a6.28,6.28,0,1,1-4.44-7.7,6.28,6.28,0,0,1,4.44,7.7" transform="translate(0 0)"/></g></g><path class="cls-14" d="M29.9,335.09a6.28,6.28,0,1,1-6.28-6.28,6.28,6.28,0,0,1,6.28,6.28" transform="translate(0 0)"/><g class="cls-9"><g class="cls-18"><path class="cls-4" d="M12.35,422.35a6.28,6.28,0,1,1-4.44-7.7,6.28,6.28,0,0,1,4.44,7.7" transform="translate(0 0)"/></g></g><g class="cls-9"><g class="cls-19"><polygon class="cls-4" points="20.61 211.52 28.43 203.71 24.1 199.38 16.29 207.19 8.47 199.38 4.15 203.71 11.96 211.52 4.15 219.33 8.47 223.66 16.29 215.85 24.1 223.66 28.43 219.33 20.61 211.52"/></g></g><path class="cls-14" d="M667.29,197.81a6.28,6.28,0,1,1-6.28-6.28,6.28,6.28,0,0,1,6.28,6.28" transform="translate(0 0)"/><g class="cls-9"><g class="cls-20"><polygon class="cls-4" points="686.61 283.66 694.42 275.85 690.09 271.52 682.28 279.33 674.47 271.52 670.14 275.85 677.96 283.66 670.14 291.47 674.47 295.8 682.28 287.99 690.09 295.8 694.42 291.47 686.61 283.66"/></g></g></g></g></svg>