<svg xmlns="http://www.w3.org/2000/svg" viewBox="0 0 715.24 503.61"><defs><style>.cls-1{fill:#bdccd4;}.cls-2{fill:#8ba3b2;}.cls-3,.cls-7{fill:#ffda7d;}.cls-4{fill:#ffe3a4;}.cls-5{fill:#f2ba49;}.cls-6{fill:#fff;opacity:0.6;}.cls-7,.cls-9{opacity:0.8;}.cls-8,.cls-9{fill:#ff6e65;}.cls-8{opacity:0.7;}</style></defs><title>Fichier 1</title><g id="Calque_2" data-name="Calque 2"><g id="Objects"><path class="cls-1" d="M94.74,321.31C21.06,286.74,2.48,250.23,9.66,227.59c5.7-18,26.47-26.54,52.93-21.83l-3.44,19.35c-15.9-2.82-28.26.56-30.75,8.43-3.88,12.23,12.81,41,74.7,70Z"/><rect class="cls-1" x="120.41" y="296.29" width="18.12" height="101.59"/><path class="cls-1" d="M241.65,215.29c-9.59-9.29-25.92-13-45.31-9.53l3.44,19.35c15.9-2.83,28.26.56,30.75,8.43,3.88,12.23-12.81,41-74.7,70l8.35,17.79c20.61-9.67,36.9-19.48,49.53-29.11C243.92,253.1,243.32,225.42,241.65,215.29Z"/><path class="cls-2" d="M249.27,227.59a29.3,29.3,0,0,0-7.62-12.3c1.67,10.13,2.28,37.81-27.93,76.91C246.25,267.41,254.44,243.9,249.27,227.59Z"/><path class="cls-3" d="M155.84,184.31l3.64-1.19h-127l47.84,129.7A52.35,52.35,0,0,0,103.09,340C191.87,258.85,155.84,184.31,155.84,184.31Z"/><path class="cls-4" d="M178.62,312.82l47.84-129.7h-67l-3.64,1.19s36,74.54-52.74,155.65a52.38,52.38,0,0,0,75.53-27.14Z"/><path class="cls-3" d="M140.14,397.88H118.79a34.91,34.91,0,0,0-34.91,34.91H175A34.91,34.91,0,0,0,140.14,397.88Z"/><rect class="cls-1" x="120.4" y="390.86" width="18.12" height="101.59" transform="translate(571.12 312.19) rotate(90)"/><polygon class="cls-5" points="129.46 211.04 138.67 239.38 168.46 239.38 144.36 256.89 153.56 285.22 129.46 267.71 105.36 285.22 114.57 256.89 90.47 239.38 120.26 239.38 129.46 211.04"/><rect class="cls-6" y="155.12" width="261.12" height="317.28"/><path class="cls-1" d="M548.87,321.31c-73.69-34.56-92.27-71.07-85.08-93.71,5.7-18,26.47-26.54,52.93-21.83l-3.44,19.35c-15.9-2.82-28.26.56-30.75,8.43-3.88,12.23,12.81,41,74.7,70Z"/><rect class="cls-1" x="574.53" y="296.29" width="18.12" height="101.59"/><path class="cls-1" d="M695.77,215.29c-9.59-9.29-25.92-13-45.31-9.53l3.44,19.35c15.9-2.83,28.26.56,30.75,8.43,3.88,12.23-12.81,41-74.7,70l8.35,17.79c20.61-9.67,36.9-19.48,49.53-29.11C698,253.1,697.44,225.42,695.77,215.29Z"/><path class="cls-2" d="M703.39,227.59a29.3,29.3,0,0,0-7.62-12.3c1.67,10.13,2.28,37.81-27.93,76.91C700.37,267.41,708.57,243.9,703.39,227.59Z"/><path class="cls-3" d="M610,184.31l3.64-1.19h-127l47.84,129.7A52.35,52.35,0,0,0,557.22,340C646,258.85,610,184.31,610,184.31Z"/><path class="cls-4" d="M632.74,312.82l47.84-129.7h-67L610,184.31S646,258.85,557.22,340a52.38,52.38,0,0,0,75.53-27.14Z"/><path class="cls-3" d="M594.26,397.88H572.92A34.91,34.91,0,0,0,538,432.79h91.17A34.91,34.91,0,0,0,594.26,397.88Z"/><rect class="cls-1" x="574.53" y="390.86" width="18.12" height="101.59" transform="translate(1025.25 -141.93) rotate(90)"/><polygon class="cls-5" points="583.59 211.04 592.79 239.38 622.59 239.38 598.48 256.89 607.69 285.22 583.59 267.71 559.49 285.22 568.69 256.89 544.59 239.38 574.38 239.38 583.59 211.04"/><path class="cls-1" d="M302.5,291c-121-56.77-151.57-116.75-139.77-153.94,9.36-29.51,43.49-43.6,86.95-35.87L244,133c-26.12-4.64-46.42.92-50.52,13.84-6.37,20.08,21,67.27,122.7,114.95Z"/><rect class="cls-1" x="344.65" y="249.94" width="29.76" height="166.87"/><rect class="cls-6" x="454.12" y="155.12" width="261.12" height="317.28"/><path class="cls-1" d="M543.82,116.88c-15.75-15.26-42.57-21.33-74.43-15.66L475,133c26.11-4.64,46.42.92,50.52,13.84,6.37,20.08-21,67.27-122.7,114.95L416.57,291c33.85-15.88,60.62-32,81.36-47.81C547.56,179,546.56,133.52,543.82,116.88Z"/><path class="cls-2" d="M556.33,137.09a48.13,48.13,0,0,0-12.52-20.21c2.74,16.64,3.74,62.11-45.88,126.34C551.37,202.5,564.84,163.88,556.33,137.09Z"/><path class="cls-3" d="M402.86,66l6-1.95H200.2L278.79,277.1a86,86,0,0,0,37.43,44.58C462.05,188.43,402.86,66,402.86,66Z"/><path class="cls-4" d="M440.28,277.1,518.87,64h-110l-6,1.95s59.19,122.44-86.64,255.69A86,86,0,0,0,440.28,277.1Z"/><path class="cls-3" d="M377.06,416.82H342a57.35,57.35,0,0,0-57.35,57.35H434.41A57.35,57.35,0,0,0,377.06,416.82Z"/><rect class="cls-1" x="344.65" y="405.3" width="29.76" height="166.87" transform="translate(848.27 129.2) rotate(90)"/><polygon class="cls-5" points="359.54 109.91 374.66 156.45 423.59 156.45 384 185.21 399.13 231.75 359.54 202.99 319.94 231.75 335.07 185.21 295.48 156.45 344.41 156.45 359.54 109.91"/><polygon class="cls-7" points="144.19 82.52 154.42 72.28 148.75 66.62 138.52 76.85 128.29 66.62 122.62 72.28 132.85 82.52 122.62 92.75 128.29 98.42 138.52 88.19 148.75 98.42 154.42 92.75 144.19 82.52"/><circle class="cls-8" cx="622.58" cy="145.77" r="10.66"/><polygon class="cls-1" points="315.51 31.64 315.51 18.75 308.37 18.75 308.37 31.64 295.48 31.64 295.48 38.78 308.37 38.78 308.37 51.67 315.51 51.67 315.51 38.78 328.4 38.78 328.4 31.64 315.51 31.64"/><circle class="cls-3" cx="458.51" cy="324.85" r="8.53"/><circle class="cls-3" cx="554.25" cy="65.99" r="9.54"/><circle class="cls-8" cx="103.09" cy="141.63" r="13.49" transform="translate(-40.41 242.09) rotate(-88.94)"/><circle class="cls-1" cx="464.12" cy="26.98" r="8.23"/><circle class="cls-7" cx="261.12" cy="13.49" r="13.49" transform="translate(180.35 262.17) rotate(-74.96)"/><circle class="cls-9" cx="411.09" cy="389.65" r="8.23" transform="translate(-71.86 685.58) rotate(-74.96)"/><circle class="cls-3" cx="20.51" cy="353.45" r="13.49" transform="translate(-326.16 281.57) rotate(-74.96)"/><circle class="cls-1" cx="261.12" cy="325.35" r="8.23" transform="translate(-120.83 493.12) rotate(-74.96)"/><polygon class="cls-1" points="520.64 335.59 526.61 330.5 523.8 327.2 517.83 332.28 512.74 326.31 509.43 329.13 514.52 335.1 508.55 340.19 511.37 343.49 517.34 338.41 522.42 344.38 525.73 341.56 520.64 335.59"/></g></g></svg>