<svg id="Calque_1" data-name="Calque 1" xmlns="http://www.w3.org/2000/svg" xmlns:xlink="http://www.w3.org/1999/xlink" viewBox="0 0 832.43 672.42"><defs><style>.cls-1{fill:none;}.cls-2{clip-path:url(#clip-path);}.cls-3{fill:#a6bcca;}.cls-4{fill:#8ba3b2;}.cls-5{fill:#81bbdb;}.cls-6{clip-path:url(#clip-path-3);}.cls-7{fill:url(#Dégradé_sans_nom);}.cls-8{opacity:0.8;}.cls-9{clip-path:url(#clip-path-5);}.cls-10{fill:#ffda7d;}.cls-11{opacity:0.7;}.cls-12{clip-path:url(#clip-path-6);}.cls-13{fill:#ff6e65;}.cls-14{clip-path:url(#clip-path-7);}.cls-15{fill:#bdccd4;}.cls-16{clip-path:url(#clip-path-8);}.cls-17{clip-path:url(#clip-path-9);}.cls-18{clip-path:url(#clip-path-10);}.cls-19{clip-path:url(#clip-path-11);}</style><clipPath id="clip-path" transform="translate(134.62 32.15)"><rect class="cls-1" width="697.82" height="640.27"/></clipPath><clipPath id="clip-path-3" transform="translate(134.62 32.15)"><polygon class="cls-1" points="9.55 237.16 312.79 442.65 379.2 316.88 212.19 149.86 9.55 237.16"/></clipPath><linearGradient id="Dégradé_sans_nom" y1="640.28" x2="1" y2="640.28" gradientTransform="matrix(197.13, 0, 0, -197.13, 120.86, 126513.46)" gradientUnits="userSpaceOnUse"><stop offset="0" stop-color="#fff"/><stop offset="0.27" stop-color="#fff"/><stop offset="1" stop-color="#ffe3a4"/></linearGradient><clipPath id="clip-path-5" transform="translate(134.62 32.15)"><rect class="cls-1" x="371.74" width="24.28" height="24.28"/></clipPath><clipPath id="clip-path-6" transform="translate(134.62 32.15)"><rect class="cls-1" x="493.54" y="27.33" width="16.27" height="16.27"/></clipPath><clipPath id="clip-path-7" transform="translate(134.62 32.15)"><rect class="cls-1" x="679.38" y="352.56" width="16.27" height="16.27"/></clipPath><clipPath id="clip-path-8" transform="translate(134.62 32.15)"><rect class="cls-1" x="191.24" y="105.68" width="12.57" height="12.57"/></clipPath><clipPath id="clip-path-9" transform="translate(134.62 32.15)"><rect class="cls-1" x="20.43" y="458.84" width="12.57" height="12.57"/></clipPath><clipPath id="clip-path-10" transform="translate(134.62 32.15)"><rect class="cls-1" x="247.47" y="605.99" width="12.57" height="12.57"/></clipPath><clipPath id="clip-path-11" transform="translate(134.62 32.15)"><rect class="cls-1" x="520.1" y="627.7" width="12.57" height="12.57"/></clipPath></defs><title>light</title><g class="cls-2"><g class="cls-2"><path class="cls-3" d="M455,72.67a44,44,0,0,0-40.57,26.89l-4.51,10.67,21.34,9,4.51-10.67A20.87,20.87,0,0,1,475.64,114l23-3A44.12,44.12,0,0,0,455,72.67" transform="translate(134.62 32.15)"/><path class="cls-4" d="M425.09,104a48.91,48.91,0,0,0-69.2,0l-30.78,30.82L394.23,204l30.86-30.81a48.91,48.91,0,0,0,0-69.15" transform="translate(134.62 32.15)"/><path class="cls-5" d="M405.83,192.4l-69.15-69.14c-41.94-15.74-90.9-7-124.49,26.61l167,167c33.61-33.59,42.35-82.54,26.63-124.48" transform="translate(134.62 32.15)"/><path class="cls-5" d="M515.15,102.27a11.58,11.58,0,0,0-14.85-6.92l-33.73,12.28a11.58,11.58,0,0,0-6.92,14.85l70.72,194.3L453.11,529a11.58,11.58,0,0,0,10.67,15.54l37.94,0.69h0.21a11.59,11.59,0,0,0,10.88-7.62l74.53-204.78V300.68ZM493.88,522l-13.45-.25,69.33-190.49,11.91,4.48Zm55.89-219.62L485.38,125.43l12-4.35,64.34,176.77Z" transform="translate(134.62 32.15)"/><path class="cls-4" d="M526.39,316.77A35.79,35.79,0,1,0,562.17,281a35.76,35.76,0,0,0-35.78,35.79" transform="translate(134.62 32.15)"/><path class="cls-3" d="M394.35,472.88a11.58,11.58,0,0,0-11.58,11.58V533h23.17V484.46a11.58,11.58,0,0,0-11.58-11.58" transform="translate(134.62 32.15)"/><polygon class="cls-4" points="452.78 542.68 406.06 605.24 692.53 605.24 692.53 542.68 452.78 542.68"/><path class="cls-3" d="M557.74,584.67H271.62a11.58,11.58,0,0,1,0-23.17H557.74a11.58,11.58,0,0,1,0,23.17" transform="translate(134.62 32.15)"/></g><g class="cls-6"><rect class="cls-7" x="-36.57" y="60.57" width="461.89" height="471.37" transform="translate(-22.89 286.88) rotate(-50)"/></g><g class="cls-2"><g class="cls-8"><g class="cls-9"><polygon class="cls-10" points="522.83 44.29 530.64 36.48 526.31 32.15 518.5 39.97 510.69 32.15 506.36 36.48 514.17 44.29 506.36 52.1 510.69 56.43 518.5 48.62 526.31 56.43 530.64 52.1 522.83 44.29"/></g></g><g class="cls-11"><g class="cls-12"><path class="cls-13" d="M509.82,35.47a8.14,8.14,0,1,1-8.14-8.14,8.14,8.14,0,0,1,8.14,8.14" transform="translate(134.62 32.15)"/></g></g><g class="cls-11"><g class="cls-14"><path class="cls-13" d="M695.66,360.69a8.14,8.14,0,1,1-8.14-8.14,8.14,8.14,0,0,1,8.14,8.14" transform="translate(134.62 32.15)"/></g></g><polygon class="cls-15" points="239.26 135.19 236.34 125.79 231.13 127.41 234.05 136.81 224.65 139.72 226.27 144.93 235.67 142.01 238.58 151.41 243.79 149.8 240.87 140.4 250.27 137.48 248.66 132.28 239.26 135.19"/><polygon class="cls-15" points="240.26 135.19 237.34 125.79 232.13 127.41 235.05 136.81 225.65 139.72 227.27 144.93 236.67 142.01 239.58 151.41 244.79 149.8 241.87 140.4 251.27 137.48 249.66 132.28 240.26 135.19"/><polygon class="cls-15" points="241.26 135.19 238.34 125.79 233.13 127.41 236.05 136.81 226.65 139.72 228.27 144.93 237.67 142.01 240.58 151.41 245.79 149.8 242.87 140.4 252.27 137.48 250.66 132.28 241.26 135.19"/><polygon class="cls-15" points="784.35 272.31 781.44 262.92 776.23 264.53 779.15 273.93 769.75 276.84 771.36 282.05 780.76 279.14 783.68 288.54 788.88 286.92 785.97 277.52 795.37 274.61 793.75 269.4 784.35 272.31"/><path class="cls-10" d="M615,81a7.28,7.28,0,1,1-7.28-7.28A7.28,7.28,0,0,1,615,81" transform="translate(134.62 32.15)"/><path class="cls-15" d="M31.63,230.76a6.28,6.28,0,1,1-6.28-6.28,6.28,6.28,0,0,1,6.28,6.28" transform="translate(134.62 32.15)"/><path class="cls-15" d="M300.18,49.58a6.28,6.28,0,1,1-6.28-6.28,6.28,6.28,0,0,1,6.28,6.28" transform="translate(134.62 32.15)"/><polygon class="cls-15" points="777.38 119.29 781.93 115.4 779.78 112.88 775.22 116.76 771.34 112.2 768.81 114.36 772.7 118.91 768.14 122.8 770.29 125.32 774.85 121.44 778.73 126 781.26 123.84 777.38 119.29"/><g class="cls-8"><g class="cls-16"><path class="cls-13" d="M203.59,113.59a6.28,6.28,0,1,1-4.44-7.7,6.28,6.28,0,0,1,4.44,7.7" transform="translate(134.62 32.15)"/></g></g><path class="cls-10" d="M1.15,390.14a6.51,6.51,0,1,1,1.67,9.06,6.52,6.52,0,0,1-1.67-9.06" transform="translate(134.62 32.15)"/><g class="cls-8"><g class="cls-17"><path class="cls-13" d="M22.64,460.34a6.28,6.28,0,1,1-.72,8.86,6.28,6.28,0,0,1,.72-8.86" transform="translate(134.62 32.15)"/></g></g><path class="cls-10" d="M154.82,541.19a10.3,10.3,0,1,1-1.17,14.52,10.3,10.3,0,0,1,1.17-14.52" transform="translate(134.62 32.15)"/><path class="cls-10" d="M50.88,604.43a10.3,10.3,0,1,1-1.17,14.52,10.3,10.3,0,0,1,1.17-14.52" transform="translate(134.62 32.15)"/><path class="cls-10" d="M680.85,185.84a10.3,10.3,0,1,1-1.17,14.52,10.3,10.3,0,0,1,1.17-14.52" transform="translate(134.62 32.15)"/><g class="cls-8"><g class="cls-18"><path class="cls-13" d="M249.68,607.48a6.28,6.28,0,1,1-.72,8.86,6.28,6.28,0,0,1,.72-8.86" transform="translate(134.62 32.15)"/></g></g><g class="cls-8"><g class="cls-19"><path class="cls-13" d="M522.32,629.2a6.28,6.28,0,1,1-.72,8.86,6.28,6.28,0,0,1,.72-8.86" transform="translate(134.62 32.15)"/></g></g><path class="cls-15" d="M639.7,609.16a6.28,6.28,0,1,1-7.92,4,6.28,6.28,0,0,1,7.92-4" transform="translate(134.62 32.15)"/><path class="cls-15" d="M404.25,621.73a6.28,6.28,0,1,1-7.92,4,6.28,6.28,0,0,1,7.92-4" transform="translate(134.62 32.15)"/><path class="cls-10" d="M651.13,469.82a10.3,10.3,0,1,1-13,6.6,10.3,10.3,0,0,1,13-6.6" transform="translate(134.62 32.15)"/></g></g></svg>