<svg id="Capa_1" data-name="Capa 1" xmlns="http://www.w3.org/2000/svg" viewBox="0 0 203.71 130.63"><defs><style>.cls-1{fill:#85bcdb;}.cls-2{fill:#77a8c6;}.cls-3{fill:#a6bcca;}.cls-4{fill:#8da7b5;}.cls-5{fill:#ff6e69;}.cls-6{fill:#e8635c;}.cls-7{fill:#ecf0f1;}.cls-8{opacity:0.35;}.cls-9{fill:#bdc3c7;}</style></defs><title>logo</title><path class="cls-1" d="M207.73,52.65a53.72,53.72,0,1,0-28.87,55.09l0.18-.08L202.3,84.4l0.08-.18A53.83,53.83,0,0,0,207.73,52.65Z" transform="translate(-27.66 -6.1)"/><path class="cls-2" d="M151.6,108.78a53.75,53.75,0,0,1-4-102.23,53.74,53.74,0,0,0-.3,106.55Z" transform="translate(-27.66 -6.1)"/><path class="cls-2" d="M183.6,103.1a55.77,55.77,0,0,1-32,5.64l-4.36,4.36a53.84,53.84,0,0,0,31.58-5.36l0.18-.08,4.56-4.56h0Z" transform="translate(-27.66 -6.1)"/><path class="cls-3" d="M202.3,84.4L179,107.66a7.4,7.4,0,0,1,8.42,1.45l26.33,26.33a4.4,4.4,0,0,0,6.22,0l10.06-10.06a4.4,4.4,0,0,0,0-6.22L203.75,92.82A7.4,7.4,0,0,1,202.3,84.4Z" transform="translate(-27.66 -6.1)"/><path class="cls-4" d="M186.51,100.19L179,107.66a7.4,7.4,0,0,1,8.42,1.45l26.33,26.33a4.4,4.4,0,0,0,6.22,0l10.06-10.06a4.4,4.4,0,0,0,0-6.22l-2.44-2.44-9.19,9.19a4.4,4.4,0,0,1-6.22,0Z" transform="translate(-27.66 -6.1)"/><path class="cls-5" d="M142.54,21.84a53.75,53.75,0,0,0-85.9,62.39l0.08,0.18L80,107.66l0.18,0.08A53.74,53.74,0,0,0,142.54,21.84Z" transform="translate(-27.66 -6.1)"/><path class="cls-6" d="M142.54,97.84a53.74,53.74,0,0,0-31.1-91.29,53.74,53.74,0,0,1-4,102.23l0,0a55.77,55.77,0,0,1-32-5.64h0L80,107.66l0.18,0.08a53.84,53.84,0,0,0,31.58,5.36L108,109.36l3.73,3.73A53.5,53.5,0,0,0,142.54,97.84Z" transform="translate(-27.66 -6.1)"/><path class="cls-3" d="M55.28,92.82L28.95,119.15a4.4,4.4,0,0,0,0,6.22L39,135.44a4.4,4.4,0,0,0,6.22,0l26.33-26.33A7.4,7.4,0,0,1,80,107.66L56.73,84.4A7.4,7.4,0,0,1,55.28,92.82Z" transform="translate(-27.66 -6.1)"/><circle class="cls-7" cx="52.09" cy="37.2" r="14.88"/><g class="cls-8"><path class="cls-9" d="M85.87,29.74A14.88,14.88,0,0,1,66.18,49.43,14.88,14.88,0,1,0,85.87,29.74Z" transform="translate(-27.66 -6.1)"/></g><path class="cls-4" d="M46.8,125.91a4.4,4.4,0,0,1-6.22,0l-9.19-9.19-2.44,2.44a4.4,4.4,0,0,0,0,6.22L39,135.44a4.4,4.4,0,0,0,6.22,0l26.33-26.33A7.4,7.4,0,0,1,80,107.66l-7.47-7.47Z" transform="translate(-27.66 -6.1)"/></svg>