<svg id="Calque_1" data-name="Calque 1" xmlns="http://www.w3.org/2000/svg" xmlns:xlink="http://www.w3.org/1999/xlink" viewBox="0 0 417.68 382.98"><defs><style>.cls-1{fill:none;}.cls-2{clip-path:url(#clip-path);}.cls-3{fill:#ff7776;}.cls-4{fill:#77a8c6;}.cls-5{fill:#e17173;}.cls-6{fill:#85bcdb;}.cls-7{fill:#d1656b;}.cls-8{fill:#f5f5f5;}.cls-9{fill:#e6e6e6;}.cls-10{fill:#ccc;}.cls-11{opacity:0.8;}.cls-12{clip-path:url(#clip-path-3);}.cls-13{fill:#ffda7d;}.cls-14{opacity:0.7;}.cls-15{clip-path:url(#clip-path-4);}.cls-16{fill:#ff6e65;}.cls-17{fill:#bdccd4;}.cls-18{clip-path:url(#clip-path-5);}.cls-19{clip-path:url(#clip-path-6);}.cls-20{clip-path:url(#clip-path-7);}.cls-21{clip-path:url(#clip-path-8);}</style><clipPath id="clip-path" transform="translate(0 0)"><rect class="cls-1" width="417.68" height="382.98"/></clipPath><clipPath id="clip-path-3" transform="translate(0 0)"><rect class="cls-1" x="317.7" y="225.46" width="24.28" height="24.28"/></clipPath><clipPath id="clip-path-4" transform="translate(0 0)"><rect class="cls-1" x="143.17" y="366.7" width="16.27" height="16.27"/></clipPath><clipPath id="clip-path-5" transform="translate(0 0)"><rect class="cls-1" x="391.74" y="302.47" width="12.57" height="12.57"/></clipPath><clipPath id="clip-path-6" transform="translate(0 0)"><rect class="cls-1" x="186.53" width="12.57" height="12.57"/></clipPath><clipPath id="clip-path-7" transform="translate(0 0)"><rect class="cls-1" x="47.85" y="142.41" width="12.57" height="12.57"/></clipPath><clipPath id="clip-path-8" transform="translate(0 0)"><rect class="cls-1" x="104" y="315.67" width="24.28" height="24.28"/></clipPath></defs><title>Objet dynamique vectoriel</title><g class="cls-2"><g class="cls-2"><path class="cls-3" d="M282.77,79.79h0l-1.56-.12c-1.11-.07-2.22-0.11-3.35-0.11H156a53.9,53.9,0,0,0-53.9,53.9v53.9H288.21c20.7-48.24-5.44-107.58-5.44-107.58" transform="translate(0 0)"/><path class="cls-4" d="M282.77,79.79l-1.56-.12Z" transform="translate(0 0)"/><path class="cls-5" d="M331.76,133.46a53.91,53.91,0,0,0-49-53.68s26.14,59.34,5.43,107.58h43.55v-53.9Z" transform="translate(0 0)"/><path class="cls-6" d="M209.89,323.23a150.07,150.07,0,0,0,37.5-5.33V187.37h-37.5V323.23Z" transform="translate(0 0)"/><path class="cls-5" d="M209.89,187.36v-53.9a53.9,53.9,0,0,0-107.8,0v53.9h107.8Z" transform="translate(0 0)"/><path class="cls-7" d="M156,79.56c-1.58,0-3.14.08-4.69,0.22a53.9,53.9,0,0,1,49.21,53.68v53.9h9.37v-53.9A53.9,53.9,0,0,0,156,79.56" transform="translate(0 0)"/><path class="cls-3" d="M196.27,246.06a53.9,53.9,0,0,1-66.16,37.86c-28.72-7.81-45.21-28-37.39-56.71l9.37-39.84h107.8Z" transform="translate(0 0)"/><path class="cls-8" d="M238,128.78a9.37,9.37,0,1,1-9.37,9.37,9.37,9.37,0,0,1,9.37-9.37" transform="translate(0 0)"/><rect class="cls-8" x="233.33" y="93.62" width="9.37" height="46.87"/><path class="cls-8" d="M249.73,93.62a9.37,9.37,0,0,1,0,18.75h-7a9.37,9.37,0,0,1,0-18.75h7Z" transform="translate(0 0)"/><path class="cls-8" d="M125.53,126.43V171a9.4,9.4,0,0,0,9.37,9.37h75V133.46a53.91,53.91,0,0,0-2.55-16.4H134.9a9.4,9.4,0,0,0-9.37,9.37" transform="translate(0 0)"/><path class="cls-9" d="M209.75,129.65c0-.27,0-0.55-0.06-0.82-0.11-1.27-.25-2.53-0.44-3.77a0.3,0.3,0,0,0,0,0c-0.2-1.27-.46-2.52-0.74-3.76l-0.11-.45c-0.3-1.27-.65-2.52-1-3.75h-9.41a53.74,53.74,0,0,1,2.59,16.4v46.87h9.38V133.46c0-1.28-.06-2.55-0.15-3.82" transform="translate(0 0)"/><rect class="cls-10" x="139.59" y="124.09" width="25.78" height="4.69"/><rect class="cls-10" x="139.59" y="133.46" width="32.81" height="4.69"/><rect class="cls-10" x="139.59" y="142.84" width="16.4" height="4.69"/><rect class="cls-10" x="139.59" y="152.21" width="37.5" height="21.09" rx="4.69" ry="4.69"/><rect class="cls-4" x="209.9" y="187.37" width="37.5" height="9.37"/><g class="cls-11"><g class="cls-12"><polygon class="cls-13" points="334.17 237.6 341.98 229.79 337.65 225.46 329.84 233.27 322.03 225.46 317.7 229.79 325.52 237.6 317.7 245.41 322.03 249.74 329.84 241.93 337.65 249.74 341.98 245.41 334.17 237.6"/></g></g><g class="cls-14"><g class="cls-15"><path class="cls-16" d="M159.44,374.84a8.14,8.14,0,1,1-8.14-8.14,8.14,8.14,0,0,1,8.14,8.14" transform="translate(0 0)"/></g></g><polygon class="cls-17" points="68.74 74.1 65.82 64.7 60.62 66.31 63.53 75.71 54.13 78.63 55.75 83.84 65.15 80.92 68.06 90.32 73.27 88.7 70.35 79.31 79.75 76.39 78.14 71.18 68.74 74.1"/><path class="cls-13" d="M417.68,161.91a7.28,7.28,0,1,1-7.28-7.28,7.28,7.28,0,0,1,7.28,7.28" transform="translate(0 0)"/><path class="cls-17" d="M12.57,245.9a6.28,6.28,0,1,1-6.28-6.28,6.28,6.28,0,0,1,6.28,6.28" transform="translate(0 0)"/><g class="cls-11"><g class="cls-18"><path class="cls-16" d="M404.1,310.39a6.28,6.28,0,1,1-4.44-7.7,6.28,6.28,0,0,1,4.44,7.7" transform="translate(0 0)"/></g></g><path class="cls-13" d="M302.3,359.07A10.3,10.3,0,1,1,295,346.46a10.3,10.3,0,0,1,7.27,12.62" transform="translate(0 0)"/><polygon class="cls-17" points="310.09 48.64 314.65 44.76 312.5 42.23 307.94 46.12 304.06 41.56 301.53 43.71 305.42 48.27 300.86 52.15 303.01 54.68 307.57 50.79 311.45 55.35 313.98 53.2 310.09 48.64"/><path class="cls-13" d="M153,33.19a10.3,10.3,0,1,1-7.27-12.62A10.3,10.3,0,0,1,153,33.19" transform="translate(0 0)"/><g class="cls-11"><g class="cls-19"><path class="cls-16" d="M198.88,7.92a6.28,6.28,0,1,1-4.44-7.7,6.28,6.28,0,0,1,4.44,7.7" transform="translate(0 0)"/></g></g><g class="cls-11"><g class="cls-20"><path class="cls-16" d="M60.2,150.33a6.28,6.28,0,1,1-4.44-7.7,6.28,6.28,0,0,1,4.44,7.7" transform="translate(0 0)"/></g></g><g class="cls-11"><g class="cls-21"><polygon class="cls-16" points="120.47 327.81 128.28 320 123.95 315.67 116.14 323.48 108.33 315.67 104 320 111.81 327.81 104 335.62 108.33 339.95 116.14 332.14 123.95 339.95 128.28 335.62 120.47 327.81"/></g></g></g></g></svg>