<svg id="Calque_1" data-name="Calque 1" xmlns="http://www.w3.org/2000/svg" xmlns:xlink="http://www.w3.org/1999/xlink" viewBox="0 0 565.01 487"><defs><style>.cls-1,.cls-32,.cls-33{fill:none;}.cls-2{clip-path:url(#clip-path);}.cls-3{fill:#8ba3b2;}.cls-4{fill:#9db1ba;}.cls-5{fill:#fff;}.cls-6{fill:#ecf0f1;}.cls-7{fill:#ff6d65;}.cls-8{fill:#ffda7d;}.cls-9{fill:#b7b7b7;}.cls-10{fill:#75a8c5;}.cls-11{opacity:0.12;}.cls-12{clip-path:url(#clip-path-3);}.cls-13{fill:#212121;}.cls-14{clip-path:url(#clip-path-4);}.cls-15{fill:#ff7776;}.cls-16{fill:#ffe0c0;}.cls-17{fill:#e17173;}.cls-18{fill:#f7cda9;}.cls-19{opacity:0.09;}.cls-20{clip-path:url(#clip-path-5);}.cls-21{fill:#ffecda;}.cls-22{fill:#85bcdb;}.cls-23{fill:#72a9c1;}.cls-24{fill:#77a8c6;}.cls-25{clip-path:url(#clip-path-6);}.cls-26{fill:#6093ad;}.cls-27{opacity:0.05;}.cls-28{clip-path:url(#clip-path-7);}.cls-29{fill:#f2f2f2;}.cls-30{fill:#81bbdb;}.cls-31{fill:#333;}.cls-32,.cls-33{stroke:#4d4d4d;stroke-miterlimit:10;}.cls-32{stroke-width:1.5px;}.cls-33{stroke-width:0.75px;}.cls-34{fill:#9e9e9e;}.cls-35{fill:#dbdbdb;}.cls-36{clip-path:url(#clip-path-8);}.cls-37{clip-path:url(#clip-path-9);}.cls-38{clip-path:url(#clip-path-10);}.cls-39{clip-path:url(#clip-path-11);}.cls-40{clip-path:url(#clip-path-12);}.cls-41{opacity:0.21;}.cls-42{clip-path:url(#clip-path-13);}.cls-43{clip-path:url(#clip-path-14);}.cls-44{opacity:0.04;}.cls-45{clip-path:url(#clip-path-15);}.cls-46{clip-path:url(#clip-path-16);}.cls-47{opacity:0.8;}.cls-48{clip-path:url(#clip-path-17);}.cls-49{opacity:0.7;}.cls-50{clip-path:url(#clip-path-18);}.cls-51{fill:#ff6e65;}.cls-52{fill:#bdccd4;}.cls-53{clip-path:url(#clip-path-19);}.cls-54{clip-path:url(#clip-path-20);}.cls-55{clip-path:url(#clip-path-21);}.cls-56{clip-path:url(#clip-path-22);}</style><clipPath id="clip-path" transform="translate(0 0)"><rect class="cls-1" width="565.01" height="487"/></clipPath><clipPath id="clip-path-3" transform="translate(0 0)"><rect class="cls-1" x="205.1" y="205.16" width="22.95" height="23.67"/></clipPath><clipPath id="clip-path-4" transform="translate(0 0)"><rect class="cls-1" x="204.92" y="204.44" width="22.95" height="23.52"/></clipPath><clipPath id="clip-path-5" transform="translate(0 0)"><rect class="cls-1" x="223.25" y="194.74" width="6.16" height="10.84"/></clipPath><clipPath id="clip-path-6" transform="translate(0 0)"><rect class="cls-1" x="222.73" y="204.81" width="1.75" height="2.98"/></clipPath><clipPath id="clip-path-7" transform="translate(0 0)"><rect class="cls-1" x="219.22" y="202.83" width="1.88" height="3.15"/></clipPath><clipPath id="clip-path-8" transform="translate(0 0)"><rect class="cls-1" x="355.15" y="268.06" width="26.48" height="26.43"/></clipPath><clipPath id="clip-path-9" transform="translate(0 0)"><rect class="cls-1" x="356.16" y="268.07" width="26.31" height="26.43"/></clipPath><clipPath id="clip-path-10" transform="translate(0 0)"><rect class="cls-1" x="378.59" y="292.26" width="10.33" height="9.33"/></clipPath><clipPath id="clip-path-11" transform="translate(0 0)"><rect class="cls-1" x="376.4" y="290.75" width="2.75" height="2.75"/></clipPath><clipPath id="clip-path-12" transform="translate(0 0)"><rect class="cls-1" x="366.04" y="279.43" width="2.9" height="2.94"/></clipPath><clipPath id="clip-path-13" transform="translate(0 0)"><rect class="cls-1" x="322.78" y="249.88" width="6.68" height="6.22"/></clipPath><clipPath id="clip-path-14" transform="translate(0 0)"><rect class="cls-1" x="322.75" y="249.75" width="6.37" height="6.52"/></clipPath><clipPath id="clip-path-15" transform="translate(0 0)"><rect class="cls-1" x="317.73" y="242.79" width="4.49" height="5.09"/></clipPath><clipPath id="clip-path-16" transform="translate(0 0)"><rect class="cls-1" x="318.62" y="243.83" width="3.11" height="3.53"/></clipPath><clipPath id="clip-path-17" transform="translate(0 0)"><rect class="cls-1" x="321.47" width="24.28" height="24.28"/></clipPath><clipPath id="clip-path-18" transform="translate(0 0)"><rect class="cls-1" x="453.27" y="57.33" width="16.27" height="16.27"/></clipPath><clipPath id="clip-path-19" transform="translate(0 0)"><rect class="cls-1" x="544.41" y="311.23" width="20.6" height="20.6"/></clipPath><clipPath id="clip-path-20" transform="translate(0 0)"><rect class="cls-1" x="236.29" y="456.73" width="12.57" height="12.57"/></clipPath><clipPath id="clip-path-21" transform="translate(0 0)"><rect class="cls-1" x="151.65" y="11.7" width="12.57" height="12.57"/></clipPath><clipPath id="clip-path-22" transform="translate(0 0)"><rect class="cls-1" y="309.38" width="24.28" height="24.28"/></clipPath></defs><title>ordi</title><g class="cls-2"><g class="cls-2"><path class="cls-3" d="M38.07,383.86H521.89v8.29c0,4.56-7.45,8.29-16.58,8.29H54.64c-9.12,0-16.58-3.73-16.58-8.29v-8.29h0Z" transform="translate(0 0)"/><path class="cls-4" d="M213.69,383.86H346.27v4.87a4.88,4.88,0,0,1-4.87,4.87H218.56a4.89,4.89,0,0,1-4.87-4.87v-4.87h0Z" transform="translate(0 0)"/><path class="cls-3" d="M84.73,121.62H475.23a8.7,8.7,0,0,1,8.67,8.67V369.55a8.69,8.69,0,0,1-8.67,8.67H84.73a8.7,8.7,0,0,1-8.67-8.67V130.29a8.69,8.69,0,0,1,8.67-8.67" transform="translate(0 0)"/><rect class="cls-5" x="94.29" y="139.03" width="371.47" height="226.39"/><rect class="cls-6" x="119.46" y="166.15" width="322.52" height="180.16"/><rect class="cls-7" x="94.29" y="139.03" width="37.83" height="14.22"/><rect class="cls-8" x="119.46" y="336.78" width="322.52" height="9.54"/><rect class="cls-9" x="357.16" y="336.78" width="84.82" height="9.54"/><path class="cls-6" d="M119.46,318.61A22.37,22.37,0,1,1,97.1,341a22.37,22.37,0,0,1,22.36-22.37" transform="translate(0 0)"/><path class="cls-7" d="M119.46,320.06A20.91,20.91,0,1,1,98.55,341a20.91,20.91,0,0,1,20.91-20.91" transform="translate(0 0)"/><polygon class="cls-5" points="111.61 328.44 130.51 340.98 111.61 353.51 111.61 328.44"/><rect class="cls-6" x="132.12" y="139.03" width="333.64" height="14.22"/><path class="cls-4" d="M128,378.21h27v5.64H128v-5.64Zm277,0h27v5.64H405v-5.64Z" transform="translate(0 0)"/><polygon class="cls-10" points="437.98 259.14 437.98 254.68 314.92 287.41 314.92 292.04 437.98 259.14"/><g class="cls-11"><g class="cls-12"><path class="cls-13" d="M217.1,205.37a7.37,7.37,0,0,0-7.42,2.51c-3.28,3.78-8.63,13.62.45,19.26,0,0,10.38,7.4,17.45-8.78,0,0,1.63-2.93-1.19-7.56Z" transform="translate(0 0)"/></g></g><g class="cls-11"><g class="cls-14"><path class="cls-13" d="M216.92,204.64a7.37,7.37,0,0,0-7.42,2.51c-3.29,3.78-8.63,13.62.45,19.26-1.47-1,10.08,8.07,17.45-8.79,0,0,1.63-2.93-1.19-7.56Z" transform="translate(0 0)"/></g></g><path class="cls-15" d="M216.55,204.18a7.37,7.37,0,0,0-7.42,2.51c-3.29,3.78-8.63,13.62.45,19.26,0,0,10.38,7.39,17.45-8.79,0,0,1.63-2.93-1.19-7.55Z" transform="translate(0 0)"/><path class="cls-16" d="M216.52,204.16l9.29,5.44a6.69,6.69,0,0,1-1.33-4.79l-3.38-2s-2.31,1.82-4.58,1.33" transform="translate(0 0)"/><path class="cls-16" d="M221.1,202.83l5.22-8.92a1.43,1.43,0,0,1,1.33-.29l1.66,1a1.12,1.12,0,0,1,.43,1.24l-5.26,9Z" transform="translate(0 0)"/><path class="cls-17" d="M209.73,226s10.38,7.4,17.45-8.78a12.11,12.11,0,0,0,.28-3.17s-13.35-3.2-22.77,3.49c0,3.05,1.26,6.12,5,8.46" transform="translate(0 0)"/><path class="cls-18" d="M219.35,205.82l3.38,2c0.66-1.86.65-3.37,0-3.73,0,0-.94-0.8-3.42,1.75" transform="translate(0 0)"/><g class="cls-19"><g class="cls-20"><path class="cls-13" d="M228.72,194.74l-5.47,9.35a3.33,3.33,0,0,1,.29,1.49l5.83-10s0.3-.65-0.64-0.87" transform="translate(0 0)"/></g></g><path class="cls-21" d="M227.86,194.24l-5.47,9.35a3.33,3.33,0,0,0-1.44.48l5.83-10s0.42-.58,1.08.13" transform="translate(0 0)"/><rect class="cls-22" x="217.58" y="200.49" width="14.72" height="0.13" transform="translate(-61.68 293.69) rotate(-59.72)"/><path class="cls-23" d="M221.28,206.95l-0.11-.07,1.64-2.8,0.1,0.08Z" transform="translate(0 0)"/><rect class="cls-24" x="217.26" y="200.31" width="14.72" height="0.13" transform="translate(-61.67 293.33) rotate(-59.72)"/><g class="cls-19"><g class="cls-25"><path class="cls-13" d="M224.48,204.81l-1.75,3s1.45-2.07,1.74-2v-1Z" transform="translate(0 0)"/></g></g><path class="cls-26" d="M220.85,206.69l0.11,0.07,1.63-2.78-0.14,0Z" transform="translate(0 0)"/><g class="cls-27"><g class="cls-28"><path class="cls-13" d="M221.1,202.83L219.22,206s1.1-2.31.88-2.52a7.53,7.53,0,0,0,1-.63" transform="translate(0 0)"/></g></g><polygon class="cls-10" points="314.92 292.04 314.92 287.41 123.06 240.53 123.06 245.07 314.92 292.04"/><polygon class="cls-29" points="123.06 240.53 241.21 220.5 437.98 254.68 314.92 287.41 123.06 240.53"/><polygon class="cls-30" points="132.9 240.98 241.61 222.55 428.61 255.03 314.92 285.37 132.9 240.98"/><polygon class="cls-29" points="194.97 230.45 192.71 230.84 376.45 268.95 377.98 268.54 194.97 230.45"/><line class="cls-31" x1="202.27" y1="258.32" x2="328.34" y2="237.09"/><line class="cls-32" x1="202.27" y1="258.32" x2="328.34" y2="237.09"/><line class="cls-31" x1="202.27" y1="255.25" x2="328.34" y2="234.02"/><line class="cls-32" x1="202.27" y1="255.25" x2="328.34" y2="234.02"/><line class="cls-31" x1="202.27" y1="251.93" x2="328.34" y2="230.69"/><line class="cls-32" x1="202.27" y1="251.93" x2="328.34" y2="230.69"/><line class="cls-31" x1="202.18" y1="248.94" x2="328.25" y2="227.71"/><line class="cls-32" x1="202.18" y1="248.94" x2="328.25" y2="227.71"/><line class="cls-31" x1="202.25" y1="246.02" x2="328.32" y2="224.79"/><line class="cls-32" x1="202.25" y1="246.02" x2="328.32" y2="224.79"/><line class="cls-33" x1="205.23" y1="257.77" x2="202.5" y2="245.65"/><line class="cls-33" x1="203.22" y1="258" x2="202.01" y2="252.66"/><line class="cls-33" x1="207.5" y1="257.58" x2="204.77" y2="245.47"/><line class="cls-33" x1="209.61" y1="257.03" x2="206.88" y2="244.92"/><line class="cls-33" x1="211.72" y1="256.71" x2="208.99" y2="244.59"/><line class="cls-33" x1="213.88" y1="256.31" x2="211.15" y2="244.2"/><line class="cls-33" x1="216.15" y1="256.13" x2="213.42" y2="244.01"/><line class="cls-33" x1="218.26" y1="255.58" x2="215.53" y2="243.46"/><line class="cls-33" x1="220.37" y1="255.25" x2="217.64" y2="243.14"/><line class="cls-33" x1="222.54" y1="255.15" x2="219.81" y2="243.04"/><line class="cls-33" x1="224.81" y1="254.64" x2="222.08" y2="242.53"/><line class="cls-33" x1="226.92" y1="254.42" x2="224.19" y2="242.3"/><line class="cls-33" x1="229.03" y1="253.77" x2="226.3" y2="241.65"/><line class="cls-33" x1="231.19" y1="253.7" x2="228.46" y2="241.58"/><line class="cls-33" x1="233.46" y1="253.19" x2="230.73" y2="241.07"/><line class="cls-33" x1="235.57" y1="252.64" x2="232.84" y2="240.53"/><line class="cls-33" x1="237.68" y1="252.32" x2="234.95" y2="240.2"/><line class="cls-33" x1="239.57" y1="251.81" x2="236.84" y2="239.7"/><line class="cls-33" x1="241.84" y1="251.63" x2="239.11" y2="239.51"/><line class="cls-33" x1="243.94" y1="251.08" x2="241.21" y2="238.96"/><line class="cls-33" x1="246.06" y1="250.75" x2="243.33" y2="238.64"/><line class="cls-33" x1="248.22" y1="250.36" x2="245.49" y2="238.25"/><line class="cls-33" x1="250.49" y1="250.17" x2="247.76" y2="238.06"/><line class="cls-33" x1="252.59" y1="249.63" x2="249.86" y2="237.51"/><line class="cls-33" x1="254.71" y1="249.3" x2="251.98" y2="237.19"/><line class="cls-33" x1="256.88" y1="248.88" x2="254.15" y2="236.76"/><line class="cls-33" x1="259.15" y1="248.69" x2="256.42" y2="236.57"/><line class="cls-33" x1="261.26" y1="248.14" x2="258.53" y2="236.03"/><line class="cls-33" x1="263.37" y1="247.82" x2="260.64" y2="235.7"/><line class="cls-33" x1="265.53" y1="247.42" x2="262.8" y2="235.31"/><line class="cls-33" x1="267.8" y1="247.24" x2="265.07" y2="235.12"/><line class="cls-33" x1="269.9" y1="246.69" x2="267.18" y2="234.57"/><line class="cls-33" x1="272.02" y1="246.36" x2="269.29" y2="234.25"/><line class="cls-33" x1="274.11" y1="246.19" x2="271.55" y2="234.03"/><line class="cls-33" x1="276.22" y1="245.89" x2="273.67" y2="233.74"/><line class="cls-33" x1="278.4" y1="245.5" x2="275.84" y2="233.35"/><line class="cls-33" x1="280.68" y1="245.02" x2="278.12" y2="232.87"/><line class="cls-33" x1="282.79" y1="244.83" x2="280.23" y2="232.67"/><line class="cls-33" x1="284.9" y1="244.53" x2="282.35" y2="232.38"/><line class="cls-33" x1="287.07" y1="244.17" x2="284.51" y2="232.02"/><line class="cls-33" x1="289.35" y1="243.69" x2="286.79" y2="231.54"/><line class="cls-33" x1="291.46" y1="243.5" x2="288.9" y2="231.34"/><line class="cls-33" x1="293.57" y1="242.88" x2="291.02" y2="230.73"/><line class="cls-33" x1="295.47" y1="242.4" x2="292.91" y2="230.25"/><line class="cls-33" x1="297.75" y1="242.25" x2="295.19" y2="230.1"/><line class="cls-33" x1="299.86" y1="241.73" x2="297.3" y2="229.58"/><line class="cls-33" x1="301.97" y1="241.44" x2="299.42" y2="229.29"/><line class="cls-33" x1="304.14" y1="241.07" x2="301.58" y2="228.92"/><line class="cls-33" x1="306.42" y1="240.6" x2="303.86" y2="228.44"/><line class="cls-33" x1="308.53" y1="240.4" x2="305.97" y2="228.25"/><line class="cls-33" x1="310.64" y1="240.11" x2="308.09" y2="227.96"/><line class="cls-33" x1="312.82" y1="239.71" x2="310.27" y2="227.56"/><line class="cls-33" x1="315.1" y1="239.24" x2="312.54" y2="227.08"/><line class="cls-33" x1="317.21" y1="239.04" x2="314.65" y2="226.89"/><line class="cls-33" x1="319.32" y1="238.75" x2="316.77" y2="226.6"/><line class="cls-33" x1="321.49" y1="238.38" x2="318.93" y2="226.23"/><line class="cls-33" x1="323.77" y1="237.91" x2="321.21" y2="225.75"/><line class="cls-33" x1="325.88" y1="237.71" x2="323.32" y2="225.56"/><line class="cls-33" x1="327.99" y1="237.42" x2="325.44" y2="225.27"/><path class="cls-34" d="M201.37,258.32V242.73h1.14V258.8a1.06,1.06,0,0,1-1.14-.49" transform="translate(0 0)"/><path class="cls-34" d="M327.43,237.76V221.9l1.14-.53v16.26a2.79,2.79,0,0,1-1.14.14" transform="translate(0 0)"/><polygon class="cls-35" points="202.5 242.56 328.57 221.37 328.57 224.69 201.37 246.3 201.37 242.73 202.5 242.56"/><g class="cls-11"><g class="cls-36"><path class="cls-13" d="M380.66,285.3a8.3,8.3,0,0,0-.62-8.8c-3.18-4.65-12.37-13.28-21.11-5,0,0-11,9.19,4.6,21.51,0,0,2.72,2.61,8.57.85Z" transform="translate(0 0)"/></g></g><g class="cls-11"><g class="cls-37"><path class="cls-13" d="M381.5,285.32a8.3,8.3,0,0,0-.62-8.8c-3.18-4.65-12.37-13.28-21.11-5,1.56-1.3-11.66,8.68,4.6,21.51,0,0,2.72,2.61,8.57.85Z" transform="translate(0 0)"/></g></g><path class="cls-22" d="M382.11,285a8.3,8.3,0,0,0-.62-8.8c-3.18-4.65-12.37-13.28-21.11-5,0,0-11,9.19,4.6,21.51,0,0,2.72,2.61,8.57.85Z" transform="translate(0 0)"/><path class="cls-16" d="M382.13,285l-8.57,8.57a7.53,7.53,0,0,1,5.59-.09l3.12-3.12s-1.33-3-.14-5.36" transform="translate(0 0)"/><path class="cls-16" d="M382.28,290.38l8.23,8.23a1.61,1.61,0,0,1-.06,1.53l-1.53,1.53a1.26,1.26,0,0,1-1.48.11l-8.29-8.29Z" transform="translate(0 0)"/><path class="cls-24" d="M360.28,271.4s-11,9.19,4.6,21.51a13.63,13.63,0,0,0,3.37,1.21s7.3-13.63,2.68-25.79c-3.32-.89-7-0.37-10.65,3.07" transform="translate(0 0)"/><path class="cls-18" d="M379.52,287.63l-3.12,3.12c1.84,1.25,3.49,1.67,4.06,1.11,0,0,1.14-.79-0.94-4.23" transform="translate(0 0)"/><g class="cls-19"><g class="cls-38"><path class="cls-13" d="M388.92,301l-8.63-8.63a3.76,3.76,0,0,1-1.7-.11l9.19,9.19s0.62,0.51,1.14-.45" transform="translate(0 0)"/></g></g><path class="cls-21" d="M389.71,300.2l-8.63-8.63a3.76,3.76,0,0,0-.11-1.7l9.19,9.19s0.51,0.62-.45,1.13" transform="translate(0 0)"/><rect class="cls-22" x="383.58" y="286.93" width="0.15" height="16.57" transform="translate(-96.38 357.79) rotate(-45)"/><path class="cls-23" d="M377.75,289.41l0.1-.1,2.58,2.58-0.12.09Z" transform="translate(0 0)"/><rect class="cls-24" x="383.88" y="286.64" width="0.15" height="16.57" transform="translate(-96.08 357.91) rotate(-45)"/><g class="cls-19"><g class="cls-39"><path class="cls-13" d="M379.15,293.51l-2.75-2.75s1.85,2.17,1.67,2.46Z" transform="translate(0 0)"/></g></g><path class="cls-26" d="M378.14,289l-0.1.1,2.57,2.57a1.38,1.38,0,0,0,.07-0.14Z" transform="translate(0 0)"/><g class="cls-27"><g class="cls-40"><path class="cls-13" d="M368.94,282.37l-2.9-2.94s2.2,1.85,2.5,1.67a8.9,8.9,0,0,0,.4,1.27" transform="translate(0 0)"/></g></g><g class="cls-41"><g class="cls-42"><path class="cls-13" d="M322.8,252.43a1.75,1.75,0,0,0,.63,1.63,13,13,0,0,0,4.74,2s3.53,0.83-1.06-5.45c0,0-3.64-2.54-4.3,1.81" transform="translate(0 0)"/></g></g><g class="cls-41"><g class="cls-43"><path class="cls-13" d="M322.8,252.13a1.75,1.75,0,0,0,.49,1.67,13,13,0,0,0,4.55,2.4s3.31,1.09-.75-5.55c0,0-3.28-2.8-4.3,1.48" transform="translate(0 0)"/></g></g><path class="cls-5" d="M322.84,244.83a3.49,3.49,0,1,1-3.49-3.49,3.49,3.49,0,0,1,3.49,3.49" transform="translate(0 0)"/><g class="cls-44"><g class="cls-45"><path class="cls-13" d="M320.74,243a10.17,10.17,0,0,1-2.81,3.81,0.45,0.45,0,0,0,0,.76c1.81,1.06,5.91-1.3,3.57-4.64a0.45,0.45,0,0,0-.78.07" transform="translate(0 0)"/></g></g><g class="cls-44"><g class="cls-46"><path class="cls-13" d="M320.7,244a7.05,7.05,0,0,1-1.95,2.64,0.31,0.31,0,0,0,0,.53c1.25,0.74,4.09-.9,2.47-3.21a0.31,0.31,0,0,0-.54,0" transform="translate(0 0)"/></g></g><g class="cls-47"><g class="cls-48"><polygon class="cls-8" points="337.94 12.14 345.75 4.33 341.42 0 333.61 7.81 325.8 0 321.47 4.33 329.28 12.14 321.47 19.95 325.8 24.28 333.61 16.47 341.42 24.28 345.75 19.95 337.94 12.14"/></g></g><g class="cls-49"><g class="cls-50"><path class="cls-51" d="M469.55,65.47a8.14,8.14,0,1,1-8.14-8.14,8.14,8.14,0,0,1,8.14,8.14" transform="translate(0 0)"/></g></g><polygon class="cls-52" points="65.05 62.06 62.13 52.66 56.93 54.27 59.84 63.67 50.44 66.59 52.06 71.8 61.46 68.88 64.37 78.28 69.58 76.67 66.66 67.27 76.06 64.35 74.45 59.14 65.05 62.06"/><path class="cls-8" d="M356.45,437.29a6.51,6.51,0,1,1-6.51-6.51,6.51,6.51,0,0,1,6.51,6.51" transform="translate(0 0)"/><path class="cls-8" d="M554.71,111a7.28,7.28,0,1,1-7.28-7.28,7.28,7.28,0,0,1,7.28,7.28" transform="translate(0 0)"/><g class="cls-49"><g class="cls-53"><path class="cls-51" d="M554.9,311.23a10.3,10.3,0,1,1-10.49,10.11,10.3,10.3,0,0,1,10.49-10.11" transform="translate(0 0)"/></g></g><path class="cls-52" d="M22,187.6a6.28,6.28,0,1,1-6.28-6.28A6.28,6.28,0,0,1,22,187.6" transform="translate(0 0)"/><path class="cls-52" d="M289.91,89.58a6.28,6.28,0,1,1-6.28-6.28,6.28,6.28,0,0,1,6.28,6.28" transform="translate(0 0)"/><g class="cls-47"><g class="cls-54"><path class="cls-51" d="M248.65,464.64a6.28,6.28,0,1,1-4.44-7.7,6.28,6.28,0,0,1,4.44,7.7" transform="translate(0 0)"/></g></g><path class="cls-8" d="M93.93,473.09a10.3,10.3,0,1,1-7.27-12.62,10.3,10.3,0,0,1,7.27,12.62" transform="translate(0 0)"/><path class="cls-52" d="M376.28,482.34a6.28,6.28,0,1,1-4.44-7.7,6.28,6.28,0,0,1,4.44,7.7" transform="translate(0 0)"/><polygon class="cls-52" points="542.48 207.13 547.04 203.25 544.89 200.72 540.33 204.61 536.45 200.05 533.92 202.2 537.81 206.76 533.25 210.64 535.4 213.17 539.96 209.29 543.84 213.84 546.37 211.69 542.48 207.13"/><path class="cls-8" d="M486,473.09a10.3,10.3,0,1,1-7.27-12.62A10.3,10.3,0,0,1,486,473.09" transform="translate(0 0)"/><g class="cls-47"><g class="cls-55"><path class="cls-51" d="M164,19.62a6.28,6.28,0,1,1-4.44-7.7,6.28,6.28,0,0,1,4.44,7.7" transform="translate(0 0)"/></g></g><g class="cls-47"><g class="cls-56"><polygon class="cls-51" points="16.47 321.52 24.28 313.71 19.95 309.38 12.14 317.19 4.33 309.38 0 313.71 7.81 321.52 0 329.33 4.33 333.66 12.14 325.85 19.95 333.66 24.28 329.33 16.47 321.52"/></g></g></g></g></svg>