<svg xmlns="http://www.w3.org/2000/svg" viewBox="0 0 559.92 427.51"><defs><style>.cls-1{fill:#75a8c5;}.cls-2,.cls-7{fill:#ffda7d;}.cls-3{fill:#8ba3b2;}.cls-4{opacity:0.3;}.cls-4,.cls-5,.cls-6{font-size:80px;font-family:Karla-Bold, Karla;font-weight:700;}.cls-4,.cls-6{fill:#231f20;}.cls-5{fill:#fff;}.cls-6{opacity:0.2;}.cls-10,.cls-7{opacity:0.8;}.cls-10,.cls-8{fill:#ff6e65;}.cls-8{opacity:0.7;}.cls-9{fill:#bdccd4;}.cls-11{fill:#ffe3a4;}.cls-12{fill:#81bbdb;}.cls-13{fill:#a6bcca;}</style></defs><title>Fichier 1</title><g id="Calque_2" data-name="Calque 2"><g id="Layer_1" data-name="Layer 1"><rect class="cls-1" x="41.04" y="133.13" width="160" height="225.6"/><polygon class="cls-2" points="201.04 38.73 201.04 196.32 201.04 201.13 201.04 358.73 361.04 358.73 361.04 201.13 361.04 196.32 361.04 38.73 201.04 38.73"/><rect class="cls-3" x="361.04" y="198.73" width="160" height="160"/><text class="cls-4" transform="translate(98.04 220.48)">2</text><text class="cls-5" transform="translate(96.04 218.73)">2</text><text class="cls-6" transform="translate(269.04 150.73)">1</text><text class="cls-5" transform="translate(267.04 148.73)">1</text><text class="cls-4" transform="translate(414.04 270.73)">3</text><text class="cls-5" transform="translate(412.04 268.73)">3</text><polygon class="cls-7" points="458.4 160.87 466.21 153.05 461.88 148.72 454.07 156.54 446.26 148.72 441.93 153.05 449.74 160.87 441.93 168.68 446.26 173 454.07 165.19 461.88 173 466.21 168.68 458.4 160.87"/><circle class="cls-8" cx="551.78" cy="181.58" r="8.14"/><polygon class="cls-9" points="189.03 23.86 186.12 14.46 180.91 16.07 183.82 25.47 174.42 28.39 176.04 33.6 185.44 30.68 188.35 40.08 193.56 38.47 190.65 29.07 200.04 26.15 198.43 20.94 189.03 23.86"/><circle class="cls-2" cx="447.56" cy="381.3" r="6.51"/><circle class="cls-2" cx="31.04" cy="85.64" r="7.28"/><circle class="cls-8" cx="288.99" cy="10.3" r="10.3" transform="translate(273.37 299.05) rotate(-88.94)"/><circle class="cls-9" cx="441.04" cy="65.94" r="6.28"/><circle class="cls-9" cx="390.64" cy="148.73" r="6.28"/><circle class="cls-7" cx="227" cy="95.94" r="10.3" transform="translate(75.45 290.28) rotate(-74.96)"/><circle class="cls-10" cx="370.78" cy="421.23" r="6.28" transform="translate(-132.21 670.04) rotate(-74.96)"/><circle class="cls-2" cx="93.76" cy="409.43" r="10.3" transform="translate(-325.97 393.76) rotate(-74.96)"/><circle class="cls-9" cx="242.41" cy="407.85" r="6.28" transform="translate(-214.36 536.16) rotate(-74.96)"/><polygon class="cls-9" points="554.12 374.97 558.68 371.09 556.53 368.56 551.97 372.44 548.09 367.89 545.56 370.04 549.44 374.6 544.89 378.48 547.04 381.01 551.6 377.12 555.48 381.68 558 379.53 554.12 374.97"/><path class="cls-11" d="M361,358.73H201V172.92S254.78,358.73,361,358.73Z"/><path class="cls-12" d="M201,358.73H41V228.93S89.61,358.73,201,358.73Z"/><path class="cls-13" d="M521,358.73H361V264.34S438.06,358.73,521,358.73Z"/><circle class="cls-2" cx="117.23" cy="106.24" r="10.3" transform="translate(-15.78 191.9) rotate(-74.96)"/><circle class="cls-10" cx="12.14" cy="200.43" r="6.28" transform="translate(-184.57 160.15) rotate(-74.96)"/><polygon class="cls-7" points="296.75 199.92 304.56 192.11 300.23 187.78 292.42 195.59 284.61 187.78 280.28 192.11 288.09 199.92 280.28 207.73 284.61 212.06 292.42 204.25 300.23 212.06 304.56 207.73 296.75 199.92"/><polygon class="cls-10" points="16.47 355.71 24.28 347.9 19.95 343.57 12.14 351.38 4.33 343.57 0 347.9 7.81 355.71 0 363.52 4.33 367.85 12.14 360.04 19.95 367.85 24.28 363.52 16.47 355.71"/></g></g></svg>