<svg id="Calque_1" data-name="Calque 1" xmlns="http://www.w3.org/2000/svg" xmlns:xlink="http://www.w3.org/1999/xlink" viewBox="0 0 321.9 544.12"><defs><style>.cls-1,.cls-2{fill:none;}.cls-2{clip-path:url(#clip-path);}.cls-3{clip-path:url(#clip-path-12);}.cls-4{opacity:0.12;}.cls-5{clip-path:url(#clip-path-14);}.cls-6{fill:#212121;}.cls-7{clip-path:url(#clip-path-16);}.cls-8{fill:#f17776;}.cls-9{fill:#fee0c1;}.cls-10{fill:#e17173;}.cls-11{opacity:0.21;}.cls-12{clip-path:url(#clip-path-18);}.cls-13{clip-path:url(#clip-path-20);}.cls-14{fill:#fff;}.cls-15{fill:#f7cda9;}.cls-16{opacity:0.09;}.cls-17{clip-path:url(#clip-path-22);}.cls-18{fill:#feecdb;}.cls-19{fill:#87bcdb;}.cls-20{fill:#72a9c1;}.cls-21{fill:#77a8c6;}.cls-22{opacity:0.04;}.cls-23{clip-path:url(#clip-path-24);}.cls-24{clip-path:url(#clip-path-26);}.cls-25{clip-path:url(#clip-path-28);}.cls-26{fill:#6193ad;}.cls-27{opacity:0.05;}.cls-28{clip-path:url(#clip-path-30);}</style><clipPath id="clip-path"><rect class="cls-1" x="0.2" y="4.21" width="322" height="544"/></clipPath><clipPath id="clip-path-12" transform="translate(-0.23 -4.09)"><rect class="cls-1" x="0.2" y="4.21" width="322" height="544"/></clipPath><clipPath id="clip-path-14" transform="translate(-0.23 -4.09)"><rect class="cls-1" x="0.2" y="4.21" width="306.6" height="321.4"/></clipPath><clipPath id="clip-path-16" transform="translate(-0.23 -4.09)"><rect class="cls-1" x="7.8" y="12.11" width="306.5" height="321.1"/></clipPath><clipPath id="clip-path-18" transform="translate(-0.23 -4.09)"><rect class="cls-1" x="132.9" y="87.51" width="135.9" height="101.6"/></clipPath><clipPath id="clip-path-20" transform="translate(-0.23 -4.09)"><rect class="cls-1" x="138.6" y="83.71" width="131.2" height="107.7"/></clipPath><clipPath id="clip-path-22" transform="translate(-0.23 -4.09)"><rect class="cls-1" x="146.6" y="369.71" width="14.4" height="173.3"/></clipPath><clipPath id="clip-path-24" transform="translate(-0.23 -4.09)"><rect class="cls-1" x="191.1" y="107.01" width="62" height="70.3"/></clipPath><clipPath id="clip-path-26" transform="translate(-0.23 -4.09)"><rect class="cls-1" x="197.9" y="114.31" width="42.9" height="48.7"/></clipPath><clipPath id="clip-path-28" transform="translate(-0.23 -4.09)"><rect class="cls-1" x="133.2" y="336.31" width="7.2" height="49.8"/></clipPath><clipPath id="clip-path-30" transform="translate(-0.23 -4.09)"><rect class="cls-1" x="196.9" y="333.31" width="7.8" height="52.8"/></clipPath></defs><title>redpong2</title><g class="cls-3"><g class="cls-3"><g class="cls-4"><g class="cls-5"><path class="cls-6" d="M228.2,325.51s60.5-14.4,73.9-85.2,8.2-231.9-145.7-236c0,0-182.6-16.4-152.9,236,0,0,1,48.2,69.8,85.2H228.2Z" transform="translate(-0.23 -4.09)"/></g></g><g class="cls-3"><g class="cls-4"><g class="cls-7"><path class="cls-6" d="M235.6,333.31s60.5-14.4,73.9-85.2,8.2-231.9-145.7-236c25.9,2.3-183.9-27-152.9,236,0,0,1,48.2,69.8,85.2H235.6Z" transform="translate(-0.23 -4.09)"/></g></g><g class="cls-3"><path class="cls-8" d="M243.5,336.31s60.5-14.4,73.9-85.2,8.2-231.9-145.7-236c0,0-182.6-16.4-152.9,236,0,0,1,48.2,69.8,85.2H243.5Z" transform="translate(-0.23 -4.09)"/><path class="cls-9" d="M244.1,336.31H89.1s30.8,9.3,51.3,49.8h56.4c0.1,0,15.4-39.4,47.3-49.8" transform="translate(-0.23 -4.09)"/><path class="cls-9" d="M196.9,386.11v148.8s-5.3,13.4-14.4,13.3H154.8s-12.3-1-14.4-12.3V386.11h56.5Z" transform="translate(-0.23 -4.09)"/><path class="cls-10" d="M169.7,15.71S-12.9-.69,16.8,251.71c0,0,8.1,25.8,19.5,41.4,0,0,189.1-57.2,257.4-208.9-22-38.1-60.2-66.8-124-68.5" transform="translate(-0.23 -4.09)"/><g class="cls-11"><g class="cls-12"><path class="cls-6" d="M268.4,131.51a33.2,33.2,0,0,0-18.6-27.3c-15.2-7.3-43.5-15.1-96-16.7,0,0-68.7-.1,43.1,95.9,0,0,78,31.3,71.5-51.9" transform="translate(-0.23 -4.09)"/></g></g><g class="cls-3"><g class="cls-11"><g class="cls-13"><path class="cls-6" d="M269.8,137.21a32.82,32.82,0,0,0-16.3-28.7c-14.5-8.5-42.1-18.7-94.3-24.6,0,0-65.8-5.8,37.7,99.1,0-.1,72.4,37.5,72.9-45.8" transform="translate(-0.23 -4.09)"/></g></g><g class="cls-3"><path class="cls-14" d="M182.5,149.11a48.2,48.2,0,1,1,48.2,48.2,48.23,48.23,0,0,1-48.2-48.2" transform="translate(-0.23 -4.09)"/><path class="cls-15" d="M196.9,336.31H140.5c5.3,28,16.4,46.7,26.7,46.7-0.1,0,17.3,3.1,29.7-46.7" transform="translate(-0.23 -4.09)"/><g class="cls-16"><g class="cls-17"><path class="cls-6" d="M160.9,542V386.11s-11.3-8.2-14.4-16.4v166.2c0.1,0,1.1,10.2,14.4,6.1" transform="translate(-0.23 -4.09)"/></g></g><g class="cls-3"><path class="cls-18" d="M175.3,542V386.11s11.3-8.2,14.4-16.4v166.2s-1.1,10.2-14.4,6.1" transform="translate(-0.23 -4.09)"/><rect class="cls-19" x="164.47" y="332.22" width="1.9" height="211.9"/><path class="cls-20" d="M164.7,336.31h1.9V383a6.28,6.28,0,0,1-1.9-.3v-46.4Z" transform="translate(-0.23 -4.09)"/><rect class="cls-21" x="169.77" y="332.22" width="1.9" height="211.9"/><g class="cls-22"><g class="cls-23"><path class="cls-6" d="M211.5,173.71c6.6-14,20.8-40.4,38.8-52.6a6.22,6.22,0,0,0-.3-10.5c-24.9-14.7-81.5,18-49.3,64.1a6.34,6.34,0,0,0,10.8-1" transform="translate(-0.23 -4.09)"/></g></g><g class="cls-3"><g class="cls-22"><g class="cls-24"><path class="cls-6" d="M212.1,160.41c4.6-9.7,14.4-27.9,26.8-36.4a4.35,4.35,0,0,0-.2-7.3c-17.3-10.2-56.4,12.4-34.1,44.4a4.38,4.38,0,0,0,7.5-.7" transform="translate(-0.23 -4.09)"/></g></g><g class="cls-3"><g class="cls-16"><g class="cls-25"><path class="cls-6" d="M140.4,386.11v-49.8s-2.9,36.3-7.2,37.3Z" transform="translate(-0.23 -4.09)"/></g></g><g class="cls-3"><path class="cls-26" d="M171.9,336.31H170v46.4a14.57,14.57,0,0,0,1.9-.7v-45.7Z" transform="translate(-0.23 -4.09)"/><g class="cls-27"><g class="cls-28"><path class="cls-6" d="M196.9,386.11l0.4-52.8s3.1,36.7,7.5,37.7a96.76,96.76,0,0,0-7.9,15.1" transform="translate(-0.23 -4.09)"/></g></g></g></g></g></g></g></g></g></g></g></g></svg>