<?xml version="1.0" encoding="utf-8"?>
<!-- Generator: Adobe Illustrator 19.2.1, SVG Export Plug-In . SVG Version: 6.00 Build 0)  -->
<svg version="1.1" id="Calque_1" xmlns="http://www.w3.org/2000/svg" xmlns:xlink="http://www.w3.org/1999/xlink" x="0px" y="0px"
	 viewBox="0 0 595.3 841.9" style="enable-background:new 0 0 595.3 841.9;" xml:space="preserve">
<style type="text/css">
	.st0{clip-path:url(#SVGID_2_);}
	.st1{opacity:0.12;clip-path:url(#SVGID_4_);}
	.st2{clip-path:url(#SVGID_6_);fill:#212121;}
	.st3{clip-path:url(#SVGID_8_);fill:#212121;}
	.st4{clip-path:url(#SVGID_4_);fill:#F17776;}
	.st5{clip-path:url(#SVGID_4_);fill:#FEE0C1;}
	.st6{clip-path:url(#SVGID_4_);fill:#E17173;}
	.st7{opacity:0.21;clip-path:url(#SVGID_4_);}
	.st8{clip-path:url(#SVGID_10_);fill:#212121;}
	.st9{clip-path:url(#SVGID_12_);fill:#212121;}
	.st10{clip-path:url(#SVGID_4_);fill:#FFFFFF;}
	.st11{clip-path:url(#SVGID_4_);fill:#F7CDA9;}
	.st12{opacity:8.999630e-02;clip-path:url(#SVGID_4_);}
	.st13{clip-path:url(#SVGID_14_);fill:#212121;}
	.st14{clip-path:url(#SVGID_4_);fill:#FEECDB;}
	.st15{clip-path:url(#SVGID_4_);fill:#87BCDB;}
	.st16{clip-path:url(#SVGID_4_);fill:#72A9C1;}
	.st17{clip-path:url(#SVGID_4_);fill:#77A8C6;}
	.st18{opacity:3.999330e-02;clip-path:url(#SVGID_4_);}
	.st19{clip-path:url(#SVGID_16_);fill:#212121;}
	.st20{clip-path:url(#SVGID_18_);fill:#212121;}
	.st21{clip-path:url(#SVGID_20_);fill:#212121;}
	.st22{clip-path:url(#SVGID_4_);fill:#6193AD;}
	.st23{opacity:5.000310e-02;clip-path:url(#SVGID_4_);}
	.st24{clip-path:url(#SVGID_22_);fill:#212121;}
</style>
<g>
	<defs>
		<rect id="SVGID_1_" x="145.2" y="158.1" width="322" height="544"/>
	</defs>
	<clipPath id="SVGID_2_">
		<use xlink:href="#SVGID_1_"  style="overflow:visible;"/>
	</clipPath>
	<g class="st0">
		<defs>
			<rect id="SVGID_3_" x="145.2" y="158.1" width="322" height="544"/>
		</defs>
		<clipPath id="SVGID_4_">
			<use xlink:href="#SVGID_3_"  style="overflow:visible;"/>
		</clipPath>
		<g class="st1">
			<g>
				<defs>
					<rect id="SVGID_5_" x="145.2" y="158.1" width="306.6" height="321.4"/>
				</defs>
				<clipPath id="SVGID_6_">
					<use xlink:href="#SVGID_5_"  style="overflow:visible;"/>
				</clipPath>
				<path class="st2" d="M373.2,479.4c0,0,60.5-14.4,73.9-85.2c13.3-70.8,8.2-231.9-145.7-236c0,0-182.6-16.4-152.9,236
					c0,0,1,48.2,69.8,85.2H373.2z"/>
			</g>
		</g>
		<g class="st1">
			<g>
				<defs>
					<rect id="SVGID_7_" x="152.8" y="166" width="306.5" height="321.1"/>
				</defs>
				<clipPath id="SVGID_8_">
					<use xlink:href="#SVGID_7_"  style="overflow:visible;"/>
				</clipPath>
				<path class="st3" d="M380.6,487.2c0,0,60.5-14.4,73.9-85.2c13.3-70.8,8.2-231.9-145.7-236c25.9,2.3-183.9-27-152.9,236
					c0,0,1,48.2,69.8,85.2H380.6z"/>
			</g>
		</g>
		<path class="st4" d="M388.5,490.2c0,0,60.5-14.4,73.9-85.2c13.3-70.8,8.2-231.9-145.7-236c0,0-182.6-16.4-152.9,236
			c0,0,1,48.2,69.8,85.2H388.5z"/>
		<path class="st5" d="M389.1,490.2H234.1c0,0,30.8,9.3,51.3,49.8h56.4C341.9,540,357.2,500.6,389.1,490.2"/>
		<path class="st5" d="M341.9,540v148.8c0,0-5.3,13.4-14.4,13.3h-27.7c0,0-12.3-1-14.4-12.3V540H341.9z"/>
		<path class="st6" d="M314.7,169.6c0,0-182.6-16.4-152.9,236c0,0,8.1,25.8,19.5,41.4c0,0,189.1-57.2,257.4-208.9
			C416.7,200,378.5,171.3,314.7,169.6"/>
		<g class="st7">
			<g>
				<defs>
					<rect id="SVGID_9_" x="277.9" y="241.4" width="135.9" height="101.6"/>
				</defs>
				<clipPath id="SVGID_10_">
					<use xlink:href="#SVGID_9_"  style="overflow:visible;"/>
				</clipPath>
				<path class="st8" d="M413.4,285.4c-0.9-11.7-8-22.2-18.6-27.3c-15.2-7.3-43.5-15.1-96-16.7c0,0-68.7-0.1,43.1,95.9
					C341.9,337.3,419.9,368.6,413.4,285.4"/>
			</g>
		</g>
		<g class="st7">
			<g>
				<defs>
					<rect id="SVGID_11_" x="283.6" y="237.6" width="131.2" height="107.7"/>
				</defs>
				<clipPath id="SVGID_12_">
					<use xlink:href="#SVGID_11_"  style="overflow:visible;"/>
				</clipPath>
				<path class="st9" d="M414.8,291.1c0.1-11.8-6.1-22.8-16.3-28.7c-14.5-8.5-42.1-18.7-94.3-24.6c0,0-65.8-5.8,37.7,99.1
					C341.9,336.8,414.3,374.4,414.8,291.1"/>
			</g>
		</g>
		<path class="st10" d="M327.5,303c0-26.6,21.6-48.2,48.2-48.2c26.6,0,48.2,21.6,48.2,48.2c0,26.6-21.6,48.2-48.2,48.2
			C349.1,351.2,327.5,329.6,327.5,303"/>
		<path class="st11" d="M341.9,490.2h-56.4c5.3,28,16.4,46.7,26.7,46.7C312.1,536.9,329.5,540,341.9,490.2"/>
		<g class="st12">
			<g>
				<defs>
					<rect id="SVGID_13_" x="291.6" y="523.6" width="14.4" height="173.3"/>
				</defs>
				<clipPath id="SVGID_14_">
					<use xlink:href="#SVGID_13_"  style="overflow:visible;"/>
				</clipPath>
				<path class="st13" d="M305.9,695.9V540c0,0-11.3-8.2-14.4-16.4v166.2C291.6,689.8,292.6,700,305.9,695.9"/>
			</g>
		</g>
		<path class="st14" d="M320.3,695.9V540c0,0,11.3-8.2,14.4-16.4v166.2C334.7,689.8,333.6,700,320.3,695.9"/>
		<rect x="309.7" y="490.2" class="st15" width="1.9" height="211.9"/>
		<path class="st16" d="M309.7,490.2h1.9v46.7c-0.6,0-1.3-0.1-1.9-0.3V490.2z"/>
		<rect x="315" y="490.2" class="st17" width="1.9" height="211.9"/>
		<g class="st18">
			<g>
				<defs>
					<rect id="SVGID_15_" x="336.1" y="260.9" width="62" height="70.3"/>
				</defs>
				<clipPath id="SVGID_16_">
					<use xlink:href="#SVGID_15_"  style="overflow:visible;"/>
				</clipPath>
				<path class="st19" d="M356.5,327.6c6.6-14,20.8-40.4,38.8-52.6c3.8-2.6,3.6-8.2-0.3-10.5c-24.9-14.7-81.5,18-49.3,64.1
					C348.5,332.4,354.5,331.9,356.5,327.6"/>
			</g>
		</g>
		<g class="st18">
			<g>
				<defs>
					<rect id="SVGID_17_" x="342.9" y="268.2" width="42.9" height="48.7"/>
				</defs>
				<clipPath id="SVGID_18_">
					<use xlink:href="#SVGID_17_"  style="overflow:visible;"/>
				</clipPath>
				<path class="st20" d="M357.1,314.3c4.6-9.7,14.4-27.9,26.8-36.4c2.6-1.8,2.5-5.7-0.2-7.3c-17.3-10.2-56.4,12.4-34.1,44.4
					C351.5,317.7,355.6,317.3,357.1,314.3"/>
			</g>
		</g>
		<g class="st12">
			<g>
				<defs>
					<rect id="SVGID_19_" x="278.2" y="490.2" width="7.2" height="49.8"/>
				</defs>
				<clipPath id="SVGID_20_">
					<use xlink:href="#SVGID_19_"  style="overflow:visible;"/>
				</clipPath>
				<path class="st21" d="M285.4,540v-49.8c0,0-2.9,36.3-7.2,37.3L285.4,540z"/>
			</g>
		</g>
		<path class="st22" d="M316.9,490.2H315v46.4c0.6-0.1,1.3-0.5,1.9-0.7V490.2z"/>
		<g class="st23">
			<g>
				<defs>
					<rect id="SVGID_21_" x="341.9" y="487.2" width="7.8" height="52.8"/>
				</defs>
				<clipPath id="SVGID_22_">
					<use xlink:href="#SVGID_21_"  style="overflow:visible;"/>
				</clipPath>
				<path class="st24" d="M341.9,540l0.4-52.8c0,0,3.1,36.7,7.5,37.7C346.5,530.3,343.5,535.7,341.9,540"/>
			</g>
		</g>
	</g>
</g>
</svg>
