<svg id="Calque_1" data-name="Calque 1" xmlns="http://www.w3.org/2000/svg" xmlns:xlink="http://www.w3.org/1999/xlink" viewBox="0 0 542.38 421.75"><defs><style>.cls-1{fill:none;}.cls-2{clip-path:url(#clip-path);}.cls-3{fill:#ff7776;}.cls-4{fill:#e17173;}.cls-5{fill:#81bbdb;}.cls-6{fill:#77a8c6;}.cls-7{opacity:0.8;}.cls-8{clip-path:url(#clip-path-3);}.cls-9{fill:#ffda7d;}.cls-10{opacity:0.7;}.cls-11{clip-path:url(#clip-path-4);}.cls-12{fill:#ff6e65;}.cls-13{fill:#bdccd4;}.cls-14{clip-path:url(#clip-path-5);}.cls-15{clip-path:url(#clip-path-6);}.cls-16{clip-path:url(#clip-path-7);}</style><clipPath id="clip-path" transform="translate(0 0)"><rect class="cls-1" width="542.38" height="421.75"/></clipPath><clipPath id="clip-path-3" transform="translate(0 0)"><rect class="cls-1" x="58.49" y="74.02" width="31.8" height="31.8"/></clipPath><clipPath id="clip-path-4" transform="translate(0 0)"><rect class="cls-1" x="521.06" y="126.45" width="21.32" height="21.32"/></clipPath><clipPath id="clip-path-5" transform="translate(0 0)"><rect class="cls-1" x="52.14" y="149.22" width="17.52" height="17.52"/></clipPath><clipPath id="clip-path-6" transform="translate(0 0)"><rect class="cls-1" x="183.49" y="7.4" width="26.98" height="26.98"/></clipPath><clipPath id="clip-path-7" transform="translate(0 0)"><rect class="cls-1" x="338.72" y="388.82" width="16.46" height="16.46"/></clipPath></defs><title>sended</title><g class="cls-2"><g class="cls-2"><path class="cls-3" d="M491,8.59L7.32,231.11c-10.78,5-9.31,20.73,2.2,23.61l102.68,25.7L172,389.67a12.57,12.57,0,0,0,19.5,3.25l61-58,160.84,50.7a12.57,12.57,0,0,0,16-9.16l81.26-352A14,14,0,0,0,491,8.59" transform="translate(0 0)"/><path class="cls-4" d="M289.22,101.42L7.32,231.11c-10.78,5-9.31,20.73,2.2,23.61l102.68,25.7L172,389.67a12.57,12.57,0,0,0,19.5,3.25l60.95-58,36.79,11.6V101.42Z" transform="translate(0 0)"/><path class="cls-4" d="M510.53,0A4.34,4.34,0,0,1,512,.22,4.34,4.34,0,0,0,510.53,0" transform="translate(0 0)"/><path class="cls-5" d="M496,21.3a2.63,2.63,0,0,0-3.39-4L112.2,280.42,172,389.67a12.46,12.46,0,0,0,8.25,6.21l28.62-77.52Z" transform="translate(0 0)"/><path class="cls-6" d="M289.22,158l-177,122.45L172,389.67a12.46,12.46,0,0,0,8.25,6.21l28.62-77.52,80.36-83.15V158h0Z" transform="translate(0 0)"/><g class="cls-7"><g class="cls-8"><polygon class="cls-9" points="80.06 89.92 90.29 79.69 84.62 74.02 74.39 84.25 64.16 74.02 58.49 79.69 68.72 89.92 58.49 100.15 64.16 105.82 74.39 95.59 84.62 105.82 90.29 100.15 80.06 89.92"/></g></g><g class="cls-10"><g class="cls-11"><path class="cls-12" d="M542.38,137.11a10.66,10.66,0,1,1-10.66-10.66,10.66,10.66,0,0,1,10.66,10.66" transform="translate(0 0)"/></g></g><polygon class="cls-13" points="277.37 55.5 277.37 42.61 270.23 42.61 270.23 55.5 257.34 55.5 257.34 62.65 270.23 62.65 270.23 75.53 277.37 75.53 277.37 62.65 290.26 62.65 290.26 55.5 277.37 55.5"/><path class="cls-9" d="M513.81,276.93a8.53,8.53,0,1,1-8.53-8.53,8.53,8.53,0,0,1,8.53,8.53" transform="translate(0 0)"/><path class="cls-9" d="M273.8,370.39a9.54,9.54,0,1,1-9.54-9.54,9.54,9.54,0,0,1,9.54,9.54" transform="translate(0 0)"/><g class="cls-10"><g class="cls-14"><path class="cls-12" d="M61.06,149.22a8.76,8.76,0,1,1-8.92,8.6,8.76,8.76,0,0,1,8.92-8.6" transform="translate(0 0)"/></g></g><path class="cls-13" d="M408.22,20.39A8.23,8.23,0,1,1,400,12.16a8.23,8.23,0,0,1,8.23,8.23" transform="translate(0 0)"/><g class="cls-7"><g class="cls-15"><path class="cls-9" d="M210,24.39a13.49,13.49,0,1,1-9.53-16.52A13.49,13.49,0,0,1,210,24.39" transform="translate(0 0)"/></g></g><g class="cls-7"><g class="cls-16"><path class="cls-12" d="M354.9,399.19a8.23,8.23,0,1,1-5.81-10.08,8.23,8.23,0,0,1,5.81,10.08" transform="translate(0 0)"/></g></g><path class="cls-9" d="M87.41,328a13.49,13.49,0,1,1-9.53-16.52A13.49,13.49,0,0,1,87.41,328" transform="translate(0 0)"/><path class="cls-13" d="M137.95,415.65a8.23,8.23,0,1,1-5.81-10.08,8.23,8.23,0,0,1,5.81,10.08" transform="translate(0 0)"/><polygon class="cls-13" points="484.13 324.76 490.1 319.68 487.28 316.37 481.31 321.45 476.22 315.49 472.91 318.3 478 324.27 472.03 329.36 474.85 332.67 480.82 327.58 485.9 333.55 489.21 330.73 484.13 324.76"/></g></g></svg>