<svg xmlns="http://www.w3.org/2000/svg" viewBox="0 0 1052.38 393.48"><defs><style>.cls-1{fill:#75a8c5;}.cls-14,.cls-2,.cls-21,.cls-23,.cls-7{fill:#212121;}.cls-2{opacity:0.12;}.cls-3{fill:#ff7776;}.cls-4{fill:#ffe0c0;}.cls-5{fill:#e17173;}.cls-6{fill:#f7cda9;}.cls-7{opacity:0.09;}.cls-8{fill:#ffecda;}.cls-9{fill:#999;}.cls-10{fill:#85bcdb;}.cls-11{fill:#72a9c1;}.cls-12{fill:#77a8c6;}.cls-13{fill:#6093ad;}.cls-14{opacity:0.05;}.cls-15{fill:#f2f2f2;}.cls-16{fill:#81bbdb;}.cls-17{fill:#333;stroke-width:1.5px;}.cls-17,.cls-18{stroke:#4d4d4d;stroke-miterlimit:10;}.cls-18{fill:none;stroke-width:0.75px;}.cls-19{fill:#9e9e9e;}.cls-20{fill:#dbdbdb;}.cls-21{opacity:0.21;}.cls-22{fill:#fff;}.cls-23{opacity:0.04;}.cls-24,.cls-27{fill:#ffda7d;}.cls-24,.cls-28{opacity:0.8;}.cls-25,.cls-28{fill:#ff6e65;}.cls-25{opacity:0.7;}.cls-26{fill:#bdccd4;}</style></defs><title>Fichier 1</title><g id="Calque_2" data-name="Calque 2"><g id="Calque_2-2" data-name="Calque 2"><polygon class="cls-1" points="1005.91 240.12 1005.91 226.38 627.15 327.12 627.15 341.39 1005.91 240.12"/><path class="cls-2" d="M326.08,74.61s-12.72-3.89-22.83,7.74-26.56,41.91,1.4,59.29c0,0,31.93,22.76,53.71-27,0,0,5-9-3.68-23.25Z"/><path class="cls-2" d="M325.54,72.38s-12.72-3.89-22.83,7.74-26.56,41.91,1.4,59.29c-4.52-3.22,31,24.84,53.71-27,0,0,5-9-3.68-23.25Z"/><path class="cls-3" d="M324.41,71s-12.72-3.89-22.83,7.74S275,120.61,303,138c0,0,31.93,22.76,53.71-27,0,0,5-9-3.68-23.25Z"/><path class="cls-4" d="M324.31,70.91,352.9,87.64s-4.67-5-4.09-14.73l-10.41-6.1S331.3,72.43,324.31,70.91Z"/><path class="cls-4" d="M338.4,66.82l16.07-27.46s2.42-1.9,4.09-.91l5.11,3A3.45,3.45,0,0,1,365,45.27L348.81,72.92Z"/><path class="cls-5" d="M303.4,138.12s31.93,22.76,53.71-27a37.24,37.24,0,0,0,.88-9.75h0s-41.09-9.87-70.07,10.75C287.86,121.48,291.81,130.91,303.4,138.12Z"/><path class="cls-6" d="M333,76l10.41,6.1c2-5.74,2-10.39.12-11.5C343.56,70.6,340.67,68.15,333,76Z"/><path class="cls-7" d="M361.87,41.92,345,70.7s1.2,2.73.88,4.58l18-30.68S364.78,42.6,361.87,41.92Z"/><path class="cls-8" d="M359.22,40.37,342.37,69.15s-3,.3-4.42,1.48L355.9,40S357.2,38.17,359.22,40.37Z"/><path class="cls-9" d="M348.81,72.92"/><path class="cls-9" d="M348.81,72.92"/><rect class="cls-10" x="350.02" y="37.17" width="0.4" height="45.31" transform="translate(78.19 -168.72) rotate(30.34)"/><path class="cls-11" d="M339,79.48l-.35-.2,5-8.61a1.75,1.75,0,0,1,.31.26Z"/><rect class="cls-12" x="349.04" y="36.6" width="0.4" height="45.31" transform="translate(77.77 -168.31) rotate(30.34)"/><path class="cls-7" d="M348.81,72.92l-5.38,9.18s4.46-6.38,5.36-6.11Z"/><path class="cls-13" d="M337.63,78.7l.35.2,5-8.56a3.88,3.88,0,0,0-.42-.08Z"/><path class="cls-14" d="M338.4,66.82l-5.77,9.71s3.38-7.1,2.69-7.76A23.73,23.73,0,0,0,338.4,66.82Z"/><polygon class="cls-1" points="627.15 341.39 627.15 327.12 36.67 182.83 36.67 196.83 627.15 341.39"/><polygon class="cls-15" points="36.67 182.83 400.3 121.19 1005.91 226.38 627.15 327.12 36.67 182.83"/><polygon class="cls-16" points="66.94 184.22 401.52 127.5 977.08 227.47 627.15 320.85 66.94 184.22"/><polygon class="cls-15" points="258 151.83 251.03 153.01 816.53 270.31 821.23 269.06 258 151.83"/><line class="cls-17" x1="280.46" y1="237.59" x2="668.47" y2="172.24"/><line class="cls-17" x1="280.44" y1="228.15" x2="668.45" y2="162.8"/><line class="cls-17" x1="280.44" y1="217.91" x2="668.45" y2="152.56"/><line class="cls-17" x1="280.18" y1="208.73" x2="668.19" y2="143.38"/><line class="cls-17" x1="280.39" y1="199.74" x2="668.4" y2="134.39"/><line class="cls-18" x1="289.57" y1="235.89" x2="281.17" y2="198.61"/><line class="cls-18" x1="283.37" y1="236.61" x2="279.66" y2="220.16"/><line class="cls-18" x1="296.56" y1="235.32" x2="288.15" y2="198.03"/><line class="cls-18" x1="303.04" y1="233.63" x2="294.64" y2="196.34"/><line class="cls-18" x1="309.54" y1="232.63" x2="301.14" y2="195.34"/><line class="cls-18" x1="316.19" y1="231.42" x2="307.79" y2="194.13"/><line class="cls-18" x1="323.18" y1="230.84" x2="314.78" y2="193.56"/><line class="cls-18" x1="329.66" y1="229.16" x2="321.26" y2="191.87"/><line class="cls-18" x1="336.16" y1="228.16" x2="327.76" y2="190.87"/><line class="cls-18" x1="342.85" y1="227.85" x2="334.45" y2="190.56"/><line class="cls-18" x1="349.84" y1="226.27" x2="341.43" y2="188.99"/><line class="cls-18" x1="356.32" y1="225.59" x2="347.92" y2="188.3"/><line class="cls-18" x1="362.82" y1="223.59" x2="354.42" y2="186.3"/><line class="cls-18" x1="369.47" y1="223.37" x2="361.07" y2="186.09"/><line class="cls-18" x1="376.46" y1="221.8" x2="368.05" y2="184.51"/><line class="cls-18" x1="382.94" y1="220.11" x2="374.54" y2="182.83"/><line class="cls-18" x1="389.44" y1="219.11" x2="381.04" y2="181.83"/><line class="cls-18" x1="395.24" y1="217.57" x2="386.84" y2="180.28"/><line class="cls-18" x1="402.23" y1="217" x2="393.83" y2="179.71"/><line class="cls-18" x1="408.72" y1="215.31" x2="400.31" y2="178.02"/><line class="cls-18" x1="415.22" y1="214.31" x2="406.81" y2="177.02"/><line class="cls-18" x1="421.86" y1="213.1" x2="413.46" y2="175.81"/><line class="cls-18" x1="428.85" y1="212.52" x2="420.45" y2="175.24"/><line class="cls-18" x1="435.34" y1="210.83" x2="426.93" y2="173.55"/><line class="cls-18" x1="441.84" y1="209.83" x2="433.44" y2="172.55"/><line class="cls-18" x1="448.52" y1="208.53" x2="440.12" y2="171.24"/><line class="cls-18" x1="455.51" y1="207.95" x2="447.11" y2="170.67"/><line class="cls-18" x1="461.99" y1="206.26" x2="453.59" y2="168.98"/><line class="cls-18" x1="468.49" y1="205.26" x2="460.09" y2="167.98"/><line class="cls-18" x1="475.14" y1="204.05" x2="466.74" y2="166.77"/><line class="cls-18" x1="482.13" y1="203.48" x2="473.73" y2="166.19"/><line class="cls-18" x1="488.62" y1="201.79" x2="480.21" y2="164.51"/><line class="cls-18" x1="495.12" y1="200.79" x2="486.71" y2="163.51"/><line class="cls-18" x1="501.54" y1="200.25" x2="493.68" y2="162.85"/><line class="cls-18" x1="508.06" y1="199.34" x2="500.19" y2="161.94"/><line class="cls-18" x1="514.76" y1="198.13" x2="506.89" y2="160.73"/><line class="cls-18" x1="521.77" y1="196.66" x2="513.9" y2="159.25"/><line class="cls-18" x1="528.26" y1="196.06" x2="520.4" y2="158.66"/><line class="cls-18" x1="534.78" y1="195.16" x2="526.91" y2="157.75"/><line class="cls-18" x1="541.44" y1="194.04" x2="533.58" y2="156.64"/><line class="cls-18" x1="548.45" y1="192.57" x2="540.58" y2="155.16"/><line class="cls-18" x1="554.95" y1="191.97" x2="547.08" y2="154.57"/><line class="cls-18" x1="561.46" y1="190.07" x2="553.59" y2="152.66"/><line class="cls-18" x1="567.3" y1="188.61" x2="559.43" y2="151.2"/><line class="cls-18" x1="574.3" y1="188.13" x2="566.44" y2="150.73"/><line class="cls-18" x1="580.8" y1="186.54" x2="572.93" y2="149.14"/><line class="cls-18" x1="587.31" y1="185.63" x2="579.45" y2="148.23"/><line class="cls-18" x1="593.98" y1="184.51" x2="586.11" y2="147.11"/><line class="cls-18" x1="600.99" y1="183.04" x2="593.12" y2="145.64"/><line class="cls-18" x1="607.48" y1="182.45" x2="599.62" y2="145.05"/><line class="cls-18" x1="614" y1="181.54" x2="606.13" y2="144.14"/><line class="cls-18" x1="620.7" y1="180.33" x2="612.83" y2="142.93"/><line class="cls-18" x1="627.71" y1="178.85" x2="619.84" y2="141.45"/><line class="cls-18" x1="634.2" y1="178.26" x2="626.34" y2="140.86"/><line class="cls-18" x1="640.72" y1="177.35" x2="632.85" y2="139.95"/><line class="cls-18" x1="647.38" y1="176.24" x2="639.52" y2="138.83"/><line class="cls-18" x1="654.39" y1="174.76" x2="646.52" y2="137.36"/><line class="cls-18" x1="660.88" y1="174.17" x2="653.02" y2="136.77"/><line class="cls-18" x1="667.4" y1="173.26" x2="659.53" y2="135.86"/><path class="cls-19" d="M277.67,237.59v-48h3.5v49.47C279.55,239.13,278.21,238.84,277.67,237.59Z"/><path class="cls-19" d="M665.67,174.33V125.49l3.5-1.63v50.05Q668.67,174.29,665.67,174.33Z"/><polygon class="cls-20" points="281.17 189.08 669.17 123.86 669.17 134.1 277.67 200.6 277.67 189.6 281.17 189.08"/><path class="cls-2" d="M829.48,320.65s7.86-12.75-1.92-27.07-38.08-40.87-65-15.37c0,0-33.89,28.3,14.15,66.2,0,0,8.38,8,26.38,2.62Z"/><path class="cls-2" d="M832.07,320.69s7.86-12.75-1.92-27.07-38.08-40.87-65-15.37c4.8-4-35.89,26.72,14.15,66.2,0,0,8.38,8,26.38,2.62Z"/><path class="cls-10" d="M833.94,319.86s7.86-12.75-1.92-27.07-38.08-40.87-65-15.37c0,0-33.89,28.3,14.15,66.2,0,0,8.38,8,26.38,2.62Z"/><path class="cls-4" d="M834,319.77l-26.38,26.38s6.83-3.65,17.21-.26l9.61-9.61S830.38,327,834,319.77Z"/><path class="cls-4" d="M834.46,336.28l25.33,25.33s1.37,3.18-.17,4.72L854.9,371s-2.27,1.92-4.54.35l-25.5-25.5Z"/><path class="cls-12" d="M766.78,277.85s-33.89,28.3,14.15,66.2c0,0,5.78,3,10.37,3.73h0s22.45-41.94,8.25-79.38C789.33,265.66,777.93,267.27,766.78,277.85Z"/><path class="cls-6" d="M826,327.81l-9.61,9.61c5.67,3.85,10.74,5.15,12.49,3.41C828.87,340.82,832.37,338.38,826,327.81Z"/><path class="cls-7" d="M854.9,368.94l-26.55-26.55s-3.32.52-5.24-.35l28.3,28.3S853.33,371.91,854.9,368.94Z"/><path class="cls-8" d="M857.35,366.5l-26.55-26.55s.52-3.32-.35-5.24l28.3,28.3S860.31,364.93,857.35,366.5Z"/><path class="cls-9" d="M824.86,345.89"/><path class="cls-9" d="M824.86,345.89"/><rect class="cls-10" x="838.49" y="325.65" width="0.45" height="51.01" transform="translate(1680.08 6.4) rotate(135)"/><path class="cls-11" d="M820.52,333.28l.32-.32,7.95,7.95a2,2,0,0,1-.38.26Z"/><rect class="cls-12" x="839.39" y="324.75" width="0.45" height="51.01" transform="translate(1680.98 4.22) rotate(135)"/><path class="cls-7" d="M824.86,345.89l-8.47-8.47s5.68,6.67,5.12,7.58Z"/><path class="cls-13" d="M821.74,332.06l-.32.32,7.9,7.9a4.37,4.37,0,0,0,.21-.43Z"/><path class="cls-14" d="M793.42,311.62l-8.93-9.05s6.77,5.71,7.68,5.15A26.72,26.72,0,0,0,793.42,311.62Z"/><path class="cls-21" d="M651.41,219.48a5.38,5.38,0,0,0,1.94,5c2.13,1.71,6.33,4,14.58,6.2,0,0,10.88,2.56-3.27-16.77C664.65,213.91,653.46,206.08,651.41,219.48Z"/><path class="cls-21" d="M651.4,218.53a5.38,5.38,0,0,0,1.51,5.15c2,1.88,6,4.52,14,7.39,0,0,10.2,3.35-2.3-17.08C664.64,214,654.55,205.35,651.4,218.53Z"/><circle class="cls-22" cx="640.79" cy="196.08" r="10.75"/><path class="cls-23" d="M645.06,190.59c-1.48,3.13-4.63,9-8.65,11.73a1.39,1.39,0,0,0,.07,2.35c5.56,3.27,18.18-4,11-14.29A1.4,1.4,0,0,0,645.06,190.59Z"/><path class="cls-23" d="M644.95,193.55c-1,2.17-3.21,6.23-6,8.12a1,1,0,0,0,0,1.63c3.85,2.27,12.59-2.77,7.6-9.89A1,1,0,0,0,644.95,193.55Z"/><polygon class="cls-24" points="501.94 18.43 509.75 10.61 505.42 6.29 497.61 14.1 489.8 6.29 485.47 10.61 493.28 18.43 485.47 26.23 489.8 30.56 497.61 22.75 505.42 30.56 509.75 26.23 501.94 18.43"/><circle class="cls-25" cx="625.41" cy="71.75" r="8.14"/><polygon class="cls-26" points="68.74 74.1 65.82 64.7 60.62 66.31 63.53 75.71 54.13 78.63 55.75 83.84 65.15 80.92 68.06 90.32 73.27 88.7 70.35 79.31 79.75 76.39 78.14 71.18 68.74 74.1"/><circle class="cls-27" cx="835.06" cy="134.74" r="6.51"/><circle class="cls-27" cx="1045.1" cy="161.63" r="7.28"/><circle class="cls-25" cx="977.08" cy="330.04" r="10.3" transform="translate(629.07 1300.87) rotate(-88.94)"/><circle class="cls-26" cx="6.28" cy="245.9" r="6.28"/><circle class="cls-26" cx="733.51" cy="387.19" r="6.28"/><circle class="cls-28" cx="398.03" cy="323.76" r="6.28" transform="translate(-17.9 624.17) rotate(-74.96)"/><circle class="cls-27" cx="292.36" cy="356.4" r="10.3" transform="translate(-127.69 546.29) rotate(-74.96)"/><circle class="cls-26" cx="495.9" cy="387.19" r="6.28" transform="translate(-6.69 765.67) rotate(-74.96)"/><polygon class="cls-26" points="913.79 76.36 918.35 72.47 916.2 69.95 911.64 73.83 907.76 69.27 905.23 71.43 909.12 75.98 904.56 79.87 906.71 82.39 911.27 78.51 915.15 83.07 917.68 80.92 913.79 76.36"/><circle class="cls-27" cx="765.73" cy="30.24" r="10.3" transform="translate(537.88 761.91) rotate(-74.96)"/><circle class="cls-28" cx="192.82" cy="6.29" r="6.28" transform="translate(136.72 190.87) rotate(-74.96)"/><polygon class="cls-28" points="120.47 327.81 128.28 320 123.95 315.67 116.14 323.48 108.33 315.67 104 320 111.81 327.81 104 335.62 108.33 339.95 116.14 332.14 123.95 339.95 128.28 335.62 120.47 327.81"/></g></g></svg>