<svg id="Calque_1" data-name="Calque 1" xmlns="http://www.w3.org/2000/svg" xmlns:xlink="http://www.w3.org/1999/xlink" viewBox="0 0 1052.38 393.48"><defs><style>.cls-1,.cls-25,.cls-26{fill:none;}.cls-2{fill:#b5d6e2;}.cls-3{clip-path:url(#clip-path);}.cls-4{opacity:0.12;}.cls-5{clip-path:url(#clip-path-2);}.cls-6{fill:#212121;}.cls-7{clip-path:url(#clip-path-3);}.cls-8{fill:#ff7776;}.cls-9{fill:#ffe0c0;}.cls-10{fill:#e17173;}.cls-11{fill:#f7cda9;}.cls-12{opacity:0.09;}.cls-13{clip-path:url(#clip-path-4);}.cls-14{fill:#ffecda;}.cls-15{fill:#85bcdb;}.cls-16{fill:#72a9c1;}.cls-17{fill:#77a8c6;}.cls-18{clip-path:url(#clip-path-5);}.cls-19{fill:#6093ad;}.cls-20{opacity:0.05;}.cls-21{clip-path:url(#clip-path-6);}.cls-22{fill:#f2f2f2;}.cls-23{fill:#c3e5f4;}.cls-24{fill:#333;}.cls-25,.cls-26{stroke:#4d4d4d;stroke-miterlimit:10;}.cls-25{stroke-width:1.5px;}.cls-26{stroke-width:0.75px;}.cls-27{fill:#9e9e9e;}.cls-28{fill:#dbdbdb;}.cls-29{clip-path:url(#clip-path-7);}.cls-30{clip-path:url(#clip-path-8);}.cls-31{fill:#e2e2e2;}.cls-32{clip-path:url(#clip-path-9);}.cls-33{clip-path:url(#clip-path-10);}.cls-34{clip-path:url(#clip-path-11);}.cls-35{opacity:0.07;}.cls-36{clip-path:url(#clip-path-12);}.cls-37{clip-path:url(#clip-path-13);}.cls-38{fill:#fff;}.cls-39{opacity:0.04;}.cls-40{clip-path:url(#clip-path-14);}.cls-41{clip-path:url(#clip-path-15);}.cls-42{opacity:0.8;}.cls-43{clip-path:url(#clip-path-16);}.cls-44{fill:#ffda7d;}.cls-45{opacity:0.7;}.cls-46{clip-path:url(#clip-path-17);}.cls-47{fill:#ff6e65;}.cls-48{fill:#bdccd4;}.cls-49{clip-path:url(#clip-path-18);}.cls-50{clip-path:url(#clip-path-19);}.cls-51{clip-path:url(#clip-path-20);}.cls-52{clip-path:url(#clip-path-21);}</style><clipPath id="clip-path" transform="translate(0 0)"><rect class="cls-1" width="1052.38" height="393.48"/></clipPath><clipPath id="clip-path-2" transform="translate(0 0)"><rect class="cls-1" x="289.15" y="73.99" width="70.64" height="72.84"/></clipPath><clipPath id="clip-path-3" transform="translate(0 0)"><rect class="cls-1" x="288.61" y="71.76" width="70.64" height="72.38"/></clipPath><clipPath id="clip-path-4" transform="translate(0 0)"><rect class="cls-1" x="345.02" y="41.92" width="18.97" height="33.36"/></clipPath><clipPath id="clip-path-5" transform="translate(0 0)"><rect class="cls-1" x="343.43" y="72.92" width="5.38" height="9.18"/></clipPath><clipPath id="clip-path-6" transform="translate(0 0)"><rect class="cls-1" x="332.63" y="66.82" width="5.77" height="9.71"/></clipPath><clipPath id="clip-path-7" transform="translate(0 0)"><rect class="cls-1" x="750.98" y="267.57" width="81.49" height="81.33"/></clipPath><clipPath id="clip-path-8" transform="translate(0 0)"><rect class="cls-1" x="754.09" y="267.61" width="80.97" height="81.33"/></clipPath><clipPath id="clip-path-9" transform="translate(0 0)"><rect class="cls-1" x="823.11" y="342.04" width="31.79" height="28.71"/></clipPath><clipPath id="clip-path-10" transform="translate(0 0)"><rect class="cls-1" x="816.38" y="337.42" width="8.47" height="8.47"/></clipPath><clipPath id="clip-path-11" transform="translate(0 0)"><rect class="cls-1" x="784.49" y="302.57" width="8.93" height="9.05"/></clipPath><clipPath id="clip-path-12" transform="translate(0 0)"><rect class="cls-1" x="651.35" y="211.63" width="20.57" height="19.16"/></clipPath><clipPath id="clip-path-13" transform="translate(0 0)"><rect class="cls-1" x="651.26" y="211.21" width="19.6" height="20.06"/></clipPath><clipPath id="clip-path-14" transform="translate(0 0)"><rect class="cls-1" x="635.8" y="189.79" width="13.83" height="15.68"/></clipPath><clipPath id="clip-path-15" transform="translate(0 0)"><rect class="cls-1" x="638.54" y="192.99" width="9.57" height="10.85"/></clipPath><clipPath id="clip-path-16" transform="translate(0 0)"><rect class="cls-1" x="485.47" y="6.29" width="24.28" height="24.28"/></clipPath><clipPath id="clip-path-17" transform="translate(0 0)"><rect class="cls-1" x="617.27" y="63.62" width="16.28" height="16.27"/></clipPath><clipPath id="clip-path-18" transform="translate(0 0)"><rect class="cls-1" x="966.78" y="319.74" width="20.59" height="20.59"/></clipPath><clipPath id="clip-path-19" transform="translate(0 0)"><rect class="cls-1" x="391.74" y="317.47" width="12.57" height="12.57"/></clipPath><clipPath id="clip-path-20" transform="translate(0 0)"><rect class="cls-1" x="186.53" width="12.57" height="12.57"/></clipPath><clipPath id="clip-path-21" transform="translate(0 0)"><rect class="cls-1" x="104" y="315.67" width="24.28" height="24.28"/></clipPath></defs><title>table</title><polygon class="cls-2" points="1005.91 240.12 1005.91 226.38 627.15 327.12 627.15 341.39 1005.91 240.12"/><g class="cls-3"><g class="cls-4"><g class="cls-5"><path class="cls-6" d="M326.08,74.61s-12.72-3.89-22.83,7.74-26.56,41.91,1.4,59.29c0,0,31.93,22.76,53.71-27,0,0,5-9-3.68-23.25Z" transform="translate(0 0)"/></g></g><g class="cls-4"><g class="cls-7"><path class="cls-6" d="M325.54,72.38s-12.72-3.89-22.83,7.74-26.56,41.91,1.4,59.29c-4.52-3.22,31,24.84,53.71-27,0,0,5-9-3.68-23.25Z" transform="translate(0 0)"/></g></g><path class="cls-8" d="M324.41,71s-12.72-3.89-22.83,7.74S275,120.61,303,138c0,0,31.93,22.76,53.71-27,0,0,5-9-3.68-23.25Z" transform="translate(0 0)"/><path class="cls-9" d="M324.31,70.91L352.9,87.64s-4.67-5-4.09-14.73l-10.42-6.1s-7.1,5.61-14.08,4.08" transform="translate(0 0)"/><path class="cls-9" d="M338.4,66.82l16.07-27.46s2.42-1.89,4.09-.91l5.11,3A3.45,3.45,0,0,1,365,45.27L348.81,72.92Z" transform="translate(0 0)"/><path class="cls-10" d="M303.4,138.12s31.93,22.76,53.7-27a37.21,37.21,0,0,0,.88-9.75s-41.09-9.86-70.07,10.75c-0.06,9.4,3.89,18.82,15.49,26" transform="translate(0 0)"/><path class="cls-11" d="M333,76l10.41,6.1c2-5.74,2-10.39.12-11.5,0,0-2.88-2.46-10.53,5.4" transform="translate(0 0)"/><g class="cls-12"><g class="cls-13"><path class="cls-6" d="M361.87,41.92L345,70.7s1.2,2.73.88,4.58l18-30.67s0.92-2-2-2.69" transform="translate(0 0)"/></g></g><path class="cls-14" d="M359.22,40.37L342.37,69.15s-3,.3-4.42,1.48L355.9,40s1.3-1.78,3.32.42" transform="translate(0 0)"/><rect class="cls-15" x="327.57" y="59.63" width="45.31" height="0.4" transform="translate(121.76 331.93) rotate(-59.68)"/><path class="cls-16" d="M339,79.48l-0.35-.2,5-8.61a1.71,1.71,0,0,1,.31.26Z" transform="translate(0 0)"/><rect class="cls-17" x="326.59" y="59.05" width="45.31" height="0.4" transform="translate(121.18 330.31) rotate(-59.55)"/><g class="cls-12"><g class="cls-18"><path class="cls-6" d="M348.81,72.92l-5.37,9.18s4.46-6.39,5.36-6.11V72.92Z" transform="translate(0 0)"/></g></g><path class="cls-19" d="M337.63,78.7l0.35,0.2,5-8.56a3.67,3.67,0,0,0-.42-0.08Z" transform="translate(0 0)"/><g class="cls-20"><g class="cls-21"><path class="cls-6" d="M338.4,66.82l-5.77,9.71s3.38-7.1,2.69-7.76a23.64,23.64,0,0,0,3.08-1.95" transform="translate(0 0)"/></g></g><polygon class="cls-2" points="627.15 341.39 627.15 327.12 36.67 182.83 36.67 196.83 627.15 341.39"/><polygon class="cls-22" points="36.67 182.83 400.3 121.19 1005.91 226.38 627.15 327.12 36.67 182.83"/><polygon class="cls-23" points="66.94 184.22 401.52 127.5 977.08 227.47 627.15 320.85 66.94 184.22"/><polygon class="cls-22" points="258 151.83 251.03 153.01 816.53 270.31 821.23 269.06 258 151.83"/><line class="cls-24" x1="280.46" y1="237.59" x2="668.47" y2="172.24"/><line class="cls-25" x1="280.46" y1="237.59" x2="668.47" y2="172.24"/><line class="cls-24" x1="280.44" y1="228.15" x2="668.45" y2="162.8"/><line class="cls-25" x1="280.44" y1="228.15" x2="668.45" y2="162.8"/><line class="cls-24" x1="280.44" y1="217.91" x2="668.45" y2="152.56"/><line class="cls-25" x1="280.44" y1="217.91" x2="668.45" y2="152.56"/><line class="cls-24" x1="280.18" y1="208.73" x2="668.19" y2="143.38"/><line class="cls-25" x1="280.18" y1="208.73" x2="668.19" y2="143.38"/><line class="cls-24" x1="280.39" y1="199.74" x2="668.4" y2="134.39"/><line class="cls-25" x1="280.39" y1="199.74" x2="668.4" y2="134.39"/><line class="cls-26" x1="289.57" y1="235.89" x2="281.17" y2="198.61"/><line class="cls-26" x1="283.37" y1="236.61" x2="279.66" y2="220.16"/><line class="cls-26" x1="296.56" y1="235.32" x2="288.15" y2="198.03"/><line class="cls-26" x1="303.04" y1="233.63" x2="294.64" y2="196.34"/><line class="cls-26" x1="309.54" y1="232.63" x2="301.14" y2="195.34"/><line class="cls-26" x1="316.19" y1="231.42" x2="307.79" y2="194.13"/><line class="cls-26" x1="323.18" y1="230.84" x2="314.78" y2="193.56"/><line class="cls-26" x1="329.66" y1="229.16" x2="321.26" y2="191.87"/><line class="cls-26" x1="336.16" y1="228.16" x2="327.76" y2="190.87"/><line class="cls-26" x1="342.85" y1="227.85" x2="334.45" y2="190.56"/><line class="cls-26" x1="349.84" y1="226.27" x2="341.43" y2="188.99"/><line class="cls-26" x1="356.32" y1="225.59" x2="347.92" y2="188.3"/><line class="cls-26" x1="362.82" y1="223.59" x2="354.42" y2="186.3"/><line class="cls-26" x1="369.47" y1="223.37" x2="361.07" y2="186.09"/><line class="cls-26" x1="376.46" y1="221.8" x2="368.06" y2="184.51"/><line class="cls-26" x1="382.94" y1="220.11" x2="374.54" y2="182.83"/><line class="cls-26" x1="389.44" y1="219.11" x2="381.04" y2="181.83"/><line class="cls-26" x1="395.24" y1="217.57" x2="386.84" y2="180.28"/><line class="cls-26" x1="402.23" y1="217" x2="393.83" y2="179.71"/><line class="cls-26" x1="408.71" y1="215.31" x2="400.31" y2="178.02"/><line class="cls-26" x1="415.21" y1="214.31" x2="406.81" y2="177.02"/><line class="cls-26" x1="421.86" y1="213.1" x2="413.46" y2="175.81"/><line class="cls-26" x1="428.85" y1="212.52" x2="420.45" y2="175.24"/><line class="cls-26" x1="435.34" y1="210.83" x2="426.94" y2="173.55"/><line class="cls-26" x1="441.84" y1="209.83" x2="433.44" y2="172.55"/><line class="cls-26" x1="448.52" y1="208.53" x2="440.12" y2="171.24"/><line class="cls-26" x1="455.51" y1="207.95" x2="447.11" y2="170.67"/><line class="cls-26" x1="461.99" y1="206.26" x2="453.59" y2="168.98"/><line class="cls-26" x1="468.49" y1="205.26" x2="460.09" y2="167.98"/><line class="cls-26" x1="475.14" y1="204.05" x2="466.74" y2="166.77"/><line class="cls-26" x1="482.13" y1="203.48" x2="473.73" y2="166.19"/><line class="cls-26" x1="488.61" y1="201.79" x2="480.21" y2="164.51"/><line class="cls-26" x1="495.12" y1="200.79" x2="486.71" y2="163.51"/><line class="cls-26" x1="501.54" y1="200.25" x2="493.68" y2="162.85"/><line class="cls-26" x1="508.06" y1="199.34" x2="500.19" y2="161.94"/><line class="cls-26" x1="514.76" y1="198.13" x2="506.89" y2="160.73"/><line class="cls-26" x1="521.77" y1="196.66" x2="513.9" y2="159.25"/><line class="cls-26" x1="528.26" y1="196.06" x2="520.4" y2="158.66"/><line class="cls-26" x1="534.78" y1="195.16" x2="526.91" y2="157.75"/><line class="cls-26" x1="541.44" y1="194.04" x2="533.58" y2="156.64"/><line class="cls-26" x1="548.45" y1="192.57" x2="540.58" y2="155.16"/><line class="cls-26" x1="554.94" y1="191.97" x2="547.08" y2="154.57"/><line class="cls-26" x1="561.46" y1="190.06" x2="553.59" y2="152.66"/><line class="cls-26" x1="567.3" y1="188.61" x2="559.43" y2="151.2"/><line class="cls-26" x1="574.3" y1="188.13" x2="566.44" y2="150.73"/><line class="cls-26" x1="580.8" y1="186.54" x2="572.93" y2="149.14"/><line class="cls-26" x1="587.31" y1="185.63" x2="579.45" y2="148.23"/><line class="cls-26" x1="593.98" y1="184.51" x2="586.11" y2="147.11"/><line class="cls-26" x1="600.99" y1="183.04" x2="593.12" y2="145.64"/><line class="cls-26" x1="607.48" y1="182.45" x2="599.62" y2="145.05"/><line class="cls-26" x1="614" y1="181.54" x2="606.13" y2="144.14"/><line class="cls-26" x1="620.7" y1="180.33" x2="612.83" y2="142.93"/><line class="cls-26" x1="627.71" y1="178.85" x2="619.84" y2="141.45"/><line class="cls-26" x1="634.2" y1="178.26" x2="626.34" y2="140.86"/><line class="cls-26" x1="640.72" y1="177.35" x2="632.85" y2="139.95"/><line class="cls-26" x1="647.38" y1="176.24" x2="639.52" y2="138.83"/><line class="cls-26" x1="654.39" y1="174.76" x2="646.52" y2="137.36"/><line class="cls-26" x1="660.88" y1="174.17" x2="653.02" y2="136.77"/><line class="cls-26" x1="667.4" y1="173.26" x2="659.53" y2="135.86"/><path class="cls-27" d="M277.67,237.59v-48h3.5v49.47c-1.62.05-3-.24-3.5-1.49" transform="translate(0 0)"/><path class="cls-27" d="M665.67,174.33V125.49l3.5-1.64v50.05q-0.5.38-3.5,0.42" transform="translate(0 0)"/><polygon class="cls-28" points="281.17 189.08 669.17 123.86 669.17 134.1 277.67 200.6 277.67 189.6 281.17 189.08"/><g class="cls-4"><g class="cls-29"><path class="cls-6" d="M829.49,320.65s7.86-12.75-1.92-27.07-38.08-40.87-65-15.37c0,0-33.89,28.3,14.15,66.2,0,0,8.38,8,26.38,2.62Z" transform="translate(0 0)"/></g></g><g class="cls-4"><g class="cls-30"><path class="cls-6" d="M832.07,320.69s7.86-12.75-1.92-27.07-38.08-40.87-65-15.37c4.8-4-35.89,26.72,14.15,66.2,0,0,8.39,8,26.38,2.62Z" transform="translate(0 0)"/></g></g><path class="cls-22" d="M833.94,319.86s7.86-12.75-1.92-27.07-38.08-40.87-65-15.37c0,0-33.89,28.3,14.15,66.2,0,0,8.38,8,26.38,2.62Z" transform="translate(0 0)"/><path class="cls-9" d="M834,319.77l-26.38,26.38s6.83-3.65,17.21-.26l9.61-9.61s-4.09-9.33-.44-16.51" transform="translate(0 0)"/><path class="cls-9" d="M834.46,336.28l25.33,25.33s1.38,3.18-.17,4.72L854.9,371s-2.27,1.92-4.54.35l-25.5-25.5Z" transform="translate(0 0)"/><path class="cls-31" d="M766.78,277.85s-33.89,28.3,14.15,66.2c0,0,5.78,3,10.37,3.73,0,0,22.45-41.94,8.25-79.38-10.22-2.74-21.61-1.12-32.77,9.45" transform="translate(0 0)"/><path class="cls-11" d="M826,327.81l-9.61,9.61c5.67,3.85,10.74,5.15,12.49,3.41,0,0,3.5-2.44-2.88-13" transform="translate(0 0)"/><g class="cls-12"><g class="cls-32"><path class="cls-6" d="M854.9,368.94l-26.55-26.55s-3.32.53-5.24-.35l28.3,28.3s1.92,1.57,3.49-1.4" transform="translate(0 0)"/></g></g><path class="cls-14" d="M857.35,366.5l-26.55-26.55s0.53-3.32-.35-5.24l28.3,28.3s1.57,1.92-1.4,3.49" transform="translate(0 0)"/><rect class="cls-15" x="838.49" y="325.65" width="0.45" height="51.01" transform="translate(-2.62 695.98) rotate(-45)"/><path class="cls-16" d="M820.52,333.28l0.32-.32,7.95,7.94a2,2,0,0,1-.38.27Z" transform="translate(0 0)"/><rect class="cls-17" x="839.39" y="324.75" width="0.45" height="51.01" transform="translate(-1.72 696.35) rotate(-45)"/><g class="cls-12"><g class="cls-33"><path class="cls-6" d="M824.86,345.89l-8.47-8.47s5.69,6.67,5.13,7.58Z" transform="translate(0 0)"/></g></g><path class="cls-19" d="M821.74,332.06l-0.32.32,7.9,7.9a4.17,4.17,0,0,0,.21-0.43Z" transform="translate(0 0)"/><g class="cls-20"><g class="cls-34"><path class="cls-6" d="M793.42,311.62l-8.93-9s6.77,5.71,7.68,5.14a26.69,26.69,0,0,0,1.24,3.9" transform="translate(0 0)"/></g></g><g class="cls-35"><g class="cls-36"><path class="cls-6" d="M651.41,219.48a5.38,5.38,0,0,0,1.94,5c2.13,1.71,6.33,4,14.58,6.2,0,0,10.88,2.56-3.28-16.77,0,0-11.2-7.83-13.24,5.56" transform="translate(0 0)"/></g></g><g class="cls-35"><g class="cls-37"><path class="cls-6" d="M651.4,218.53a5.38,5.38,0,0,0,1.51,5.15c2,1.88,6,4.52,14,7.39,0,0,10.2,3.35-2.3-17.09,0,0-10.08-8.63-13.23,4.55" transform="translate(0 0)"/></g></g><path class="cls-38" d="M651.54,196.08a10.75,10.75,0,1,1-10.75-10.75,10.75,10.75,0,0,1,10.75,10.75" transform="translate(0 0)"/><g class="cls-39"><g class="cls-40"><path class="cls-6" d="M645.06,190.59c-1.48,3.13-4.63,9-8.65,11.73a1.39,1.39,0,0,0,.07,2.35c5.56,3.27,18.18-4,11-14.29a1.4,1.4,0,0,0-2.4.21" transform="translate(0 0)"/></g></g><g class="cls-39"><g class="cls-41"><path class="cls-6" d="M644.95,193.55c-1,2.17-3.21,6.23-6,8.12a1,1,0,0,0,0,1.63c3.85,2.27,12.59-2.77,7.6-9.89a1,1,0,0,0-1.66.14" transform="translate(0 0)"/></g></g><g class="cls-42"><g class="cls-43"><polygon class="cls-44" points="501.94 18.42 509.75 10.61 505.42 6.29 497.61 14.1 489.8 6.29 485.47 10.61 493.28 18.42 485.47 26.23 489.8 30.56 497.61 22.75 505.42 30.56 509.75 26.23 501.94 18.42"/></g></g><g class="cls-45"><g class="cls-46"><path class="cls-47" d="M633.55,71.76a8.14,8.14,0,1,1-8.14-8.14,8.14,8.14,0,0,1,8.14,8.14" transform="translate(0 0)"/></g></g><polygon class="cls-48" points="68.74 74.1 65.82 64.7 60.62 66.31 63.53 75.71 54.13 78.63 55.75 83.84 65.14 80.92 68.06 90.32 73.27 88.7 70.35 79.31 79.75 76.39 78.14 71.18 68.74 74.1"/><path class="cls-44" d="M841.57,134.74a6.51,6.51,0,1,1-6.51-6.51,6.51,6.51,0,0,1,6.51,6.51" transform="translate(0 0)"/><path class="cls-44" d="M1052.38,161.63a7.28,7.28,0,1,1-7.28-7.28,7.28,7.28,0,0,1,7.28,7.28" transform="translate(0 0)"/><g class="cls-45"><g class="cls-49"><path class="cls-47" d="M977.27,319.75a10.3,10.3,0,1,1-10.49,10.1,10.3,10.3,0,0,1,10.49-10.1" transform="translate(0 0)"/></g></g><path class="cls-48" d="M12.57,245.9a6.28,6.28,0,1,1-6.28-6.28,6.28,6.28,0,0,1,6.28,6.28" transform="translate(0 0)"/><path class="cls-48" d="M739.79,387.19a6.28,6.28,0,1,1-6.28-6.28,6.28,6.28,0,0,1,6.28,6.28" transform="translate(0 0)"/><g class="cls-42"><g class="cls-50"><path class="cls-47" d="M404.1,325.39a6.28,6.28,0,1,1-4.44-7.7,6.28,6.28,0,0,1,4.44,7.7" transform="translate(0 0)"/></g></g><path class="cls-44" d="M302.3,359.07A10.3,10.3,0,1,1,295,346.46a10.3,10.3,0,0,1,7.27,12.62" transform="translate(0 0)"/><path class="cls-48" d="M502,388.82a6.28,6.28,0,1,1-4.44-7.7,6.28,6.28,0,0,1,4.44,7.7" transform="translate(0 0)"/><polygon class="cls-48" points="913.79 76.36 918.35 72.47 916.2 69.95 911.64 73.83 907.76 69.27 905.23 71.42 909.12 75.98 904.56 79.87 906.71 82.39 911.27 78.51 915.15 83.07 917.68 80.92 913.79 76.36"/><path class="cls-44" d="M775.68,32.91A10.3,10.3,0,1,1,768.4,20.3a10.3,10.3,0,0,1,7.27,12.62" transform="translate(0 0)"/><g class="cls-42"><g class="cls-51"><path class="cls-47" d="M198.88,7.92a6.28,6.28,0,1,1-4.44-7.7,6.28,6.28,0,0,1,4.44,7.7" transform="translate(0 0)"/></g></g><g class="cls-42"><g class="cls-52"><polygon class="cls-47" points="120.47 327.81 128.28 320 123.95 315.67 116.14 323.48 108.33 315.67 104 320 111.81 327.81 104 335.62 108.33 339.95 116.14 332.14 123.95 339.95 128.28 335.62 120.47 327.81"/></g></g></g></svg>